<?xml version="1.0" encoding="utf-8"?>
<!-- Generator: Adobe Illustrator 19.0.0, SVG Export Plug-In . SVG Version: 6.00 Build 0)  -->
<svg version="1.1"
	 id="Layer_1" xmlns:rdf="http://www.w3.org/1999/02/22-rdf-syntax-ns#" xmlns:cc="http://creativecommons.org/ns#" xmlns:dc="http://purl.org/dc/elements/1.1/"
	 xmlns="http://www.w3.org/2000/svg" xmlns:xlink="http://www.w3.org/1999/xlink" x="0px" y="0px" viewBox="83.6 0 512 512"
	 style="enable-background:new 83.6 0 512 512;" xml:space="preserve">
<style type="text/css">
	.st0{fill:none;stroke:#C5518F;stroke-width:10;stroke-linecap:square;}
</style>
<g>
	<path class="st0" d="M121.2,126.4c62.3-105.9,199.6-150,317.4-102.1s178.1,172.4,139.3,287.8S414,496.7,288.4,471.7L192.2,505
		l4.8-70.5C91.6,365.5,58.8,232.3,121.2,126.4L121.2,126.4z"/>
	<path class="st0" d="M152.3,140.4C206.2,46.1,324.7,6.8,426.5,49.5S580.4,203,546.9,305.8c-33.5,102.8-150.4,163.7-258.9,141.6
		l-74.3,30.2l3.8-60.2C126.5,356,98.5,234.7,152.3,140.4L152.3,140.4z"/>
	<g transform="translate(7.0873 5.5616)">
		<path class="st0" d="M220.5,276.9c-15.6-10.2-19.5-30.2-8.9-44.9s31.9-18.7,47.7-8.8c15.8,9.9,20.2,29.8,9.9,44.7
			c-10.4,14.9-31.5,19.3-47.6,9.8"/>
		<path class="st0" d="M317.1,276.9c-15.6-10.2-19.5-30.2-8.9-44.9s31.9-18.7,47.7-8.8c15.8,9.9,20.2,29.8,9.9,44.7
			c-10.4,14.9-31.5,19.3-47.6,9.8"/>
		<path class="st0" d="M408,276.9c-15.6-10.2-19.5-30.2-8.9-44.9c10.6-14.7,31.9-18.7,47.7-8.8c15.8,9.9,20.2,29.8,9.9,44.7
			c-10.4,14.9-31.5,19.3-47.6,9.8"/>
	</g>
</g>
</svg>
