<?xml version="1.0" encoding="utf-8"?>
<!-- Generator: Adobe Illustrator 19.0.0, SVG Export Plug-In . SVG Version: 6.00 Build 0)  -->
<svg version="1.1" id="Layer_1" xmlns="http://www.w3.org/2000/svg" xmlns:xlink="http://www.w3.org/1999/xlink" x="0px" y="0px"
	 viewBox="0 0 512 512" style="enable-background:new 0 0 512 512;" xml:space="preserve">
<style type="text/css">
	.st0{fill:#B2B2B2;}
	.st1{fill:#333332;}
	.st2{fill:#212121;}
	.st3{opacity:0.3;fill:#191919;}
	.st4{opacity:0.3;fill:#7F7F7F;}
	.st5{fill:#FFFFFF;}
</style>
<polygon id="XMLID_3_" class="st0" points="456.2,57 254,313.4 255,511.5 494.5,267.5 "/>
<polygon id="XMLID_5_" class="st1" points="51.6,56.9 15.6,267.7 255,511.5 255,313.4 "/>
<path id="XMLID_2_" class="st2" d="M189.9,138.5"/>
<g id="XMLID_6_">
	<polygon id="XMLID_7_" class="st3" points="34.9,154.9 124.9,149.3 51.6,56.9 	"/>
	<polygon id="XMLID_8_" class="st1" points="51.6,56.9 124.9,149.3 163.8,1.8 	"/>
</g>
<g id="XMLID_1_">
	<polygon id="XMLID_9_" class="st4" points="473.6,154.9 383.6,149.3 456.9,56.9 	"/>
	<polygon id="XMLID_4_" class="st0" points="456.9,56.9 383.6,149.3 344.7,1.8 	"/>
</g>
<polygon id="XMLID_10_" class="st5" points="160,288 150.1,309.2 214.3,364 214.4,340.4 "/>
<polygon id="XMLID_11_" class="st5" points="349.5,287 359.6,308.8 293.8,365 293.7,340.8 "/>
<path id="XMLID_13_" class="st5" d="M153.6,283.8"/>
</svg>
