<?xml version="1.0" encoding="utf-8"?>
<!-- Generator: Adobe Illustrator 19.0.0, SVG Export Plug-In . SVG Version: 6.00 Build 0)  -->
<svg version="1.1"
	 id="Layer_1" xmlns:rdf="http://www.w3.org/1999/02/22-rdf-syntax-ns#" xmlns:cc="http://creativecommons.org/ns#" xmlns:dc="http://purl.org/dc/elements/1.1/"
	 xmlns="http://www.w3.org/2000/svg" xmlns:xlink="http://www.w3.org/1999/xlink" x="0px" y="0px" viewBox="0 0 512 512"
	 style="enable-background:new 0 0 512 512;" xml:space="preserve">
<style type="text/css">
	.st0{fill:none;stroke:#E8285A;stroke-width:5;stroke-opacity:0.8392;}
</style>
<g>
	<g>
		<path class="st0" d="M196.7,167.5h-50.3"/>
		<path class="st0" d="M381.1,462.8c26-7.1,55.1-27.4,73.1-50.6"/>
		<path class="st0" d="M454.2,412c24.3-31.3,36-63.6,37.6-103.3"/>
		<path class="st0" d="M491.8,308.7c-2.3-84-49.9-156.8-117.4-170.2"/>
		<path class="st0" d="M374.6,138.4c-6.2-1.1-20-1.6-31.2-1.2"/>
		<path class="st0" d="M343.3,137.3c-18,0.8-21.8,1.5-35.7,7.1"/>
		<path class="st0" d="M307.5,144.4c-44.1,17.6-78.2,58.4-93.5,111.2"/>
		<path class="st0" d="M214,255.7c-4.7,16.2-4.9,18.6-5,45.1"/>
		<path class="st0" d="M209.1,300.8c-0.1,32.7,1.6,41.3,13.2,69.4"/>
		<path class="st0" d="M222,370.1c19.3,47,58,82.8,100.4,93.6"/>
	</g>
	<g>
		<path class="st0" d="M226.2,301.6c0-80.1,55.7-144.9,124.3-144.9s124.3,64.9,124.3,144.9s-55.6,144.9-124.3,144.9
			S226.2,381.7,226.2,301.6"/>
		<path class="st0" d="M250.4,301c0-63.9,44.3-115.6,99-115.6c54.8,0,99.1,51.8,99.1,115.4v0.1c0,63.9-44.3,115.6-99,115.6
			C294.7,416.7,250.4,365.1,250.4,301C250.4,301.1,250.4,301,250.4,301"/>
		<path class="st0" d="M286.6,299.9c0-39.5,27.3-71.4,61.2-71.5c33.9,0,61.2,31.9,61.3,71.4v0.1c0,39.5-27.3,71.4-61.2,71.5
			C314.1,371.4,286.6,339.6,286.6,299.9C286.6,300.1,286.6,300.1,286.6,299.9"/>
		<path class="st0" d="M298,471.8l-15.1-8.9 M222.2,471.8H298 M146.4,471.8h75.8 M146.4,319.6v152.1 M146.4,167.5v152.1 M247,167.5
			h-50.3 M199.7,344.7c-13.1-58.4,0.5-117.1,38.6-165.9 M282.8,462.8c-40.5-23.7-72-68.4-83.1-118.1"/>
		<path class="st0" d="M164.1,203.5c2,0,3.9-1.3,4.5-3 M159.6,200.5c0.5,1.6,2.5,3,4.5,3 M164.1,192.7c-2.9,0-5.7,4.6-4.5,7.9
			 M168.7,200.5c1.1-3.3-1.5-7.9-4.5-7.9 M174.2,198.4c0,10.3-10.7,15.9-16.8,8.9 M164.4,187.3c5.6,0,9.8,4.9,9.8,11.1 M157.3,207.2
			c-6.6-7.8-2.4-20.1,7-20.1"/>
		<path class="st0" d="M322.4,471.6c3.9,0,2-1-6.9-3.6 M257.4,435.9c20,19,50.7,35.6,64.9,35.5 M204.9,343
			c7.5,33.4,28.2,70,52.5,92.9 M201.9,275c-2.5,15.8-1.1,50.1,2.9,68.2 M227.3,205c-12.6,21-21.4,45.1-25.4,69.9 M286.1,145.5
			c-22.5,13.1-43.9,34.8-58.9,59.6 M314.2,133.9c-1.3-1.5-15.9,4.5-28,11.4 M205.6,267.5c6.4-31.2,19.4-59.3,37.7-82.2
			c8.3-10.3,17.6-19.6,27.9-27.6 M206.4,339.6c-4.2-20.5-4.7-53.3-0.8-72.1 M259,434.3c-25.2-23.5-45.3-60-52.6-94.9 M315.5,467.9
			c-17-4.9-40.7-19-56.3-33.7 M271.3,157.8c10.7-8.3,30-18.8,39.3-21.5"/>
		<path class="st0" d="M322.6,463.6c15.3,3.8,42.9,3.4,58.5-0.9"/>
		<path class="st0" d="M139.5,471.9l-0.9-172.1 M123.2,471.9h16.2 M107,471.9h16.2 M106.2,305.3l0.8,166.7 M106.2,151.4v153.8
			 M109.7,148.7l-3.5,2.6 M136.4,140.5c-4.8,0-23.4,5.8-26.8,8.3 M138.6,299.8c-0.7-137.3-0.3-159.4-2.2-159.4"/>
		<path class="st0" d="M468.6,178.9c2,2.3,6.8,1.2,7.7-1.6 M470.2,170.4c-2.5,1.1-3.5,6.4-1.6,8.5 M476.3,177.3
			c1.3-3.7-2.8-8.4-6.2-6.9"/>
		<path class="st0" d="M424.6,153.7c9.6,7.2,13.5,8.5,6.8,2.2 M389.5,135.9c8.2,1.8,25.8,10.9,35.1,17.8 M431.3,155.7
			c-9.9-9.5-44.2-26.3-46.3-22.5 M467.3,197c0.3-0.3-0.9-2.7-2.5-5.5C445.5,158.6,456.5,198,467.3,197 M476.2,391.7
			c1.4-2.1,4.6-8.3,7-14.2 M487.3,366.5c-0.3-0.3-3.4,6.1-7,14.2 M378.2,471.6c3.1,0.1,10-1.5,15.4-3.6 M372.6,471.4l5.6,0.3
			 M378.8,469.9l-6.2,1.5 M469.7,401.6c-22.8,33.1-56.4,60-90.9,68.4 M474,395.3l-4.4,6.4 M434.4,443.7
			c10.2-8.5,30.6-32.4,36.1-42.2 M393.5,467.9c13-5,29.4-14.8,40.9-24.3"/>
		<path class="st0" d="M279.1,142.3c5.6-3.4,14.3-8.1,19.3-10.1 M269,148.7l10.1-6.4 M272.5,129.9l-3.5,18.8 M279.1,99.3
			c-1.7,6.7-4.7,20.5-6.5,30.8 M282.3,87.2l-3.1,12.1 M350.1,87.2h-68 M418,87.2h-68 M419.7,91.8l-1.6-4.6 M429.5,145.7
			c2.1,1.1-5.8-41.8-10-53.9 M416.5,138.4c6.3,3.6,12.2,6.8,13,7.1 M398.5,129.7c3.6,1.2,11.7,5.2,18.1,8.8 M391.6,119.9
			c0.4,6.9,0.9,7.4,6.9,9.7 M386.1,111.1c4.5,1.5,5.1,2.4,5.6,9.1 M381.1,103.3c0,5.3,0.7,6.4,5,7.8 M381.1,97.2v6.1 M349.1,97.7
			l32-0.6 M317,98.2l32-0.6 M311.4,111.5c3.7-1.5,4.8-3,5.1-7.5 M307.2,120.8c-0.4-6.9-0.1-7.6,4.2-9.4 M298.4,132.3l9.3-3.9"/>
		<path class="st0" d="M66.5,134.6c44.7-0.6,57.5-1.2,63.7-3.4 M10.5,135.3l56-0.7 M10.5,113.3v21.8 M13.3,92.7
			c-2.4-1.1-2.6,0.6-2.6,20.5 M41.4,100.2c-14.1-3.4-26.7-6.8-28.1-7.5 M135.2,103.3c-22.7,7.1-56.7,6.1-93.8-3 M138.4,115.3
			c0.4-12.8,0.4-13.1-3.1-12 M137.9,128.3l0.4-13.1 M130.2,131.2l7.7-2.7"/>
		<path class="st0" d="M322.7,131.5c2.3,0,2.5-0.8,1.3-4.6 M311.6,119.5c0,3,8.2,12,11,12 M317,115.7c-2.9,1.1-5.4,2.7-5.4,3.8
			 M322.4,118c0-3.9-0.3-4-5.4-2.3 M323.9,126.8c-0.9-2.6-1.5-6.7-1.5-8.8"/>
		<path class="st0" d="M373.4,127.5c-2.1,6.2,3.8,5.3,9.6-1.3 M375.6,118.5c-0.5,2.7-1.5,6.7-2.3,8.9 M381.1,115.5
			c-4.4-1.8-4.7-1.6-5.6,3 M383,126c5.2-6.1,4.9-7.8-1.8-10.6"/>
		<path class="st0" d="M369.4,123.4l1.1-7.1 M349.2,123.8l20.4-0.6 M328.8,124.3l20.4-0.6 M327.5,116.6l1.3,7.6 M326.2,109l1.3,7.6
			 M348.4,108.5l-22.3,0.6 M371.1,108.5c-0.2-0.3-10.4-0.3-22.7,0 M370.5,116.2c0.5-3.9,0.9-7.4,0.7-7.6"/>
		<path class="st0" d="M74.7,100.9c13,1.8,32,2.1,27.2,0.4 M17.9,87.8c13.7,4,46.3,11.4,57,13 M10.4,85.6l7.4,2.3 M14.2,79.5
			l-3.8,6.1 M52.2,68.4c-30.9,0.7-31.4,0.8-38,11.3 M87.4,68.2c-3.6-0.1-19.4,0-35.2,0.3 M94,68.5l-6.5-0.3 M90.9,72.5l3.2-3.9
			 M87.7,83.2c0-4.3,1.2-8.2,3.2-10.9 M93.1,95.1c-4.5-4-5.4-6.2-5.4-11.7 M102,101.3c-2-0.7-6-3.4-8.9-6.2"/>
		<path class="st0" d="M131,95.4c-3.6,4.2-3.5,4.2,2.8,1.6 M131.6,74.3c3.4,5.7,3.1,16.9-0.7,21.2 M131.4,70.2
			c-1.8,0-1.7,0.8,0.2,3.9 M138.6,86c0-9.4-2.9-15.8-7.3-15.8 M133.9,97.1c4.6-1.9,4.9-2.4,4.9-11.3"/>
		<path class="st0" d="M115.2,93c5.9-0.4,9.1-1.8,11.4-4.5 M96.9,74.9c-8.3,8.7,2.4,19.4,18.4,18.2 M127.9,80.3
			c-4.4-9.5-23.9-13-31-5.3 M126.7,88.7c2.9-3.4,3.1-4.3,1.2-8.3"/>
		<path class="st0" d="M348.5,80.4c38.2-0.1,69.8-0.9,70.5-1.5 M279.8,77.7c-0.7,2.7,5.2,3,68.6,2.7 M289.8,46.4
			c-2.1,2.2-6.1,14.5-10,31.5 M348.3,39.7c-41.5,0-53.2,1.3-58.5,6.8 M410.1,45.5c-4.4-4-22-5.8-61.8-5.8 M419,78.8
			c1.5-1.8-6.3-30.9-8.9-33.5"/>
		<path class="st0" d="M102.6,472.2l-0.8-168.4 M57.1,472.2h45.5 M11.6,472.2h45.5 M10.7,300.2l0.8,172.1 M10.7,140.8v159.4
			 M60.4,140.8H10.8 M109.9,140.8H60.3 M105.9,144.7l4-3.7 M101.9,148.3l4-3.7 M101.9,303.8V148.3"/>
	</g>
	<path class="st0" d="M6,477V276.8 M204,476.2L6,476.9 M401.9,475.5l-198,0.7 M417.4,466.4l-15.5,9.1 M505.7,313.1
		c-3.1,64-37.3,123.3-88.2,153.3 M480.4,203.6c18.7,34.1,27.1,70.6,25.3,109.4 M475,194.1l5.3,9.7 M480.6,188.2L475,194
		 M486.1,175.7c0,5.3-1.1,7.8-5.6,12.5 M459.5,164.4c18.4-9.3,26.6-5.8,26.6,11.3 M447.9,160.7c5.9,6.9,4.5,7.4,11.7,3.8
		 M437.5,129.7c4,23.2,4.6,24.7,10.2,31.1 M420.3,48.8c2.9,8.3,11.8,49.7,17.3,80.8 M405.6,34.1c6.5,0,11,4.3,14.6,14.6 M398.9,30.6
		c0.8,2.7,2.3,3.6,6.8,3.6 M349.4,27.1c47.2,0,48.5,0.1,49.5,3.6 M299.3,30.6c1.6-3.4,3.2-3.6,50.1-3.6 M293.7,34.1
		c2.3,0,4.6-1.5,5.6-3.6 M280.7,45.3c3.5-7.9,7.1-11.1,13.1-11.1 M262.3,126c7.5-41.6,14.5-71.9,18.4-80.8 M256.6,157.6l5.8-31.6
		 M201.5,158.1l55.1-0.6 M146.4,158.4l55.1-0.6 M146.4,115.4v43 M142.8,67.6c3.4,4.6,3.5,5.5,3.5,47.8 M71.9,59.5
		c55.6,0,65.9,1.2,71.1,8.2 M9.9,70.8c7.4-11.3,7.7-11.3,62-11.3 M6,76.9l3.9-6 M6,276.8v-200"/>
</g>
</svg>
