<?xml version="1.0" encoding="utf-8"?>
<!-- Generator: Adobe Illustrator 19.0.0, SVG Export Plug-In . SVG Version: 6.00 Build 0)  -->
<svg version="1.1"
	 id="Layer_1" xmlns:dc="http://purl.org/dc/elements/1.1/" xmlns:rdf="http://www.w3.org/1999/02/22-rdf-syntax-ns#" xmlns:cc="http://creativecommons.org/ns#"
	 xmlns="http://www.w3.org/2000/svg" xmlns:xlink="http://www.w3.org/1999/xlink" x="0px" y="0px" viewBox="0 0 512 512"
	 style="enable-background:new 0 0 512 512;" xml:space="preserve">
<style type="text/css">
	.st0{fill:none;stroke:#B2B2B2;stroke-width:3;}
</style>
<g>
	<path class="st0" d="M10.1,505.8c-1.8-1.4-3.9-4.6-4.8-7.2L3.5,494l32.3-81.8l32.3-81.8H444l32.3,81.8l32.3,81.8l-1.8,4.7
		c-1,2.6-3.3,5.8-5,7.2c-3.3,2.6-4.3,2.6-246,2.6C14.2,508.4,13.2,508.4,10.1,505.8L10.1,505.8z"/>
	<path class="st0" d="M313.5,494.5c0.7-0.9,0-9.3-2.3-26.9c-1.9-14.1-3.6-26.9-3.8-28.5l-0.5-2.9h-50.8c-27.9,0-50.8,0.1-50.9,0.3
		c0,0.2-1.8,12.9-3.8,28.2c-2.6,18.7-3.5,28.4-2.9,29.5C199.8,496.3,311.9,496.6,313.5,494.5L313.5,494.5z"/>
	<path class="st0" d="M462.6,422.5c-1.6-4-9.1-23.9-16.7-44.1s-14.2-37.5-14.7-38.4c-1.4-2.4-349-2.4-350.5,0
		c-0.6,0.9-7.6,19.3-15.7,40.9S49.4,422.4,48.4,425l-1.9,4.7h418.9L462.6,422.5z"/>
	<path class="st0" d="M53.6,425.4c0-0.4,1.1-3.6,2.5-7l2.5-6.3h19.8l-2.3,6.7l-2.3,6.7l-10.1,0.3C58.2,426,53.6,425.8,53.6,425.4
		L53.6,425.4z"/>
	<path class="st0" d="M79.6,424.8c0-0.7,1-3.8,2.2-7L84,412h9.9c11.1,0,10.5-0.7,7.1,9.8l-1.4,4.2h-10
		C83.7,426.1,79.6,425.5,79.6,424.8L79.6,424.8z"/>
	<path class="st0" d="M105.5,424.4c0-0.9,0.9-4,2-7l1.9-5.4h19.3l-0.6,3.5c-1.7,10.6-1.6,10.5-12.6,10.5
		C108.1,426,105.4,425.6,105.5,424.4L105.5,424.4z"/>
	<path class="st0" d="M131.7,422.6c1.7-10.6,1.6-10.6,12.6-10.6h10.1l-0.7,3.5c-2.1,10.8-0.9,9.8-12.2,10.2l-10.3,0.4L131.7,422.6z"
		/>
	<path class="st0" d="M157.3,423.8c0-1.2,0.5-4.3,1.1-7l1.1-4.7l70.5,0.3l70.5,0.3l0.8,5.5c0.4,3.1,0.5,6,0.2,6.7
		c-0.3,0.6-32.9,1.1-72.2,1.1C161.4,426,157.3,425.9,157.3,423.8L157.3,423.8z"/>
	<path class="st0" d="M307.5,424.9c-0.3-0.6-0.9-3.7-1.2-7l-0.6-5.8h20l1,6c0.6,3.3,0.8,6.4,0.5,7
		C326.5,426.5,308.1,426.3,307.5,424.9L307.5,424.9z"/>
	<path class="st0" d="M333,423.2c-0.5-1.6-1.1-4.7-1.5-7l-0.6-4.1l10.2,0.4l10.2,0.4l1.2,5.9c0.7,3.3,1,6.3,0.7,6.7
		c-0.3,0.4-4.7,0.7-9.9,0.7C334.3,426.1,333.8,425.9,333,423.2L333,423.2z"/>
	<path class="st0" d="M358.9,423.8c-0.5-1.3-1.3-4.4-1.7-7l-0.7-4.7h19.2l1.4,4.1c3.1,9.3,3.2,9.2-7.6,9.6
		C361.1,426.1,359.7,425.9,358.9,423.8L358.9,423.8z"/>
	<path class="st0" d="M384.6,422.5c-0.6-1.9-1.3-5-1.6-7l-0.6-3.5h19.2l2,5.8c1.1,3.2,2,6.3,2,7c0,0.6-4.5,1.2-10,1.2
		C385.7,426.1,385.7,426.1,384.6,422.5L384.6,422.5z"/>
	<path class="st0" d="M412.2,425.1c-1.1-1.4-3.6-9.2-3.6-11.2c0-1.4,2.1-1.8,9.5-1.8h9.5l2,5c3.5,8.7,3.3,9-7.3,9
		C417.1,426.1,412.6,425.6,412.2,425.1L412.2,425.1z"/>
	<path class="st0" d="M437.7,423.8c-0.5-1.2-1.6-4.3-2.5-7l-1.6-4.7h19.8l2.5,6.3c1.4,3.5,2.5,6.6,2.5,7s-4.4,0.7-10,0.7
		C440.1,426,438.4,425.7,437.7,423.8L437.7,423.8z"/>
	<path class="st0" d="M60.6,407.3c0-0.5,1-3.3,2.3-6l2.3-5l13.2-0.4c8.9-0.2,13.2,0.1,13.2,1c0,0.8-0.9,3.6-2,6.4l-2,5H74.2
		C66.6,408.2,60.6,407.8,60.6,407.3L60.6,407.3z"/>
	<path class="st0" d="M93.6,406.6c0-0.9,0.8-3.6,1.8-6l1.7-4.4l8.9-0.4c4.8-0.2,9.2,0.1,9.6,0.6c0.4,0.6-0.1,3.5-1.1,6.4l-1.9,5.4
		h-9.5C96.1,408.2,93.5,407.8,93.6,406.6L93.6,406.6z"/>
	<path class="st0" d="M118.5,407.2c0-2.4,2.4-9.8,3.5-10.7c0.6-0.5,5-1,9.9-1h8.8l-0.7,4.1c-1.4,8.4-1.6,8.6-11.9,8.6
		C122.7,408.3,118.5,407.8,118.5,407.2L118.5,407.2z"/>
	<path class="st0" d="M143.9,404.2c1.5-8.6,1.7-8.7,11.7-8.3c9.1,0.4,9.2,0.4,8.8,3.5c-1,8.8-1.3,9-11.6,9h-9.6L143.9,404.2z"/>
	<path class="st0" d="M168.8,403.5c0.4-2.7,1.2-5.4,1.8-6.3c1.2-1.9,17.3-2.3,18.2-0.4c0.3,0.7,0.3,3.6-0.1,6.3l-0.7,5.1h-19.9
		L168.8,403.5z"/>
	<path class="st0" d="M193.6,403c0.4-2.9,0.9-5.7,1.2-6.3c0.7-1.4,18.1-1.4,18.7-0.1c0.3,0.6,0.2,3.5-0.1,6.3l-0.6,5.3h-19.9
		L193.6,403z"/>
	<path class="st0" d="M218.2,405.2c0-1.7,0.5-4.5,1-6.4c1-3.3,1.1-3.3,9.8-3l8.8,0.4l0.3,6l0.3,6h-10.1
		C218.2,408.3,218.2,408.2,218.2,405.2L218.2,405.2z"/>
	<path class="st0" d="M243.3,402.2l0.3-6h18.9l0.3,6l0.3,6H243L243.3,402.2z"/>
	<path class="st0" d="M268.2,402.2l0.3-6l8.5-0.4c9.6-0.4,11,0.7,11,8.2v4.2h-20L268.2,402.2z"/>
	<path class="st0" d="M292.7,402.9c-0.2-3-0.3-5.8,0-6.3c0.6-1.3,18-1.2,18.6,0.1c0.3,0.6,0.8,3.5,1.2,6.3l0.7,5.2h-20L292.7,402.9
		L292.7,402.9z"/>
	<path class="st0" d="M317.5,403.1c-0.4-2.9-0.4-5.7-0.1-6.3c0.7-1.4,16.4-1.6,18.1-0.2c0.6,0.5,1.5,3.4,1.9,6.3l0.7,5.4h-19.9
		L317.5,403.1L317.5,403.1z"/>
	<path class="st0" d="M342.9,405.4c-0.5-1.6-1-4.3-1.2-6c-0.3-3.1-0.3-3.1,8.9-3.5l9.3-0.4l1.5,4.4c2.7,8.2,2.6,8.4-8,8.4
		C344.2,408.3,343.7,408.1,342.9,405.4L342.9,405.4z"/>
	<path class="st0" d="M367.7,404.9c-0.6-1.9-1.1-4.5-1.2-6c-0.2-2.6,0.2-2.7,27.7-3c15.4-0.2,28.8-0.1,30,0.3s2.7,2.6,3.5,5.4
		c0.8,2.7,1.6,5.2,1.8,5.7s-13.4,1-30.2,1h-30.6L367.7,404.9z"/>
	<path class="st0" d="M433.6,404.2c-3.7-7.7-3.1-8.7,5.7-8.3l7.7,0.4l2.3,5c1.3,2.8,2.3,5.5,2.3,6s-3.6,1-8,1
		C435.6,408.2,435.6,408.2,433.6,404.2L433.6,404.2z"/>
	<path class="st0" d="M68.5,386.7l2.1-5h18.5c10.2,0,18.5,0.3,18.5,0.7c0,0.4-0.7,2.7-1.5,5l-1.5,4.4H66.5L68.5,386.7z"/>
	<path class="st0" d="M111,387.1c0.8-2.6,1.5-4.8,1.5-5c0-0.3,4.2-0.5,9.5-0.5s9.5,0.3,9.5,0.7c0,0.4-0.7,2.7-1.5,5l-1.5,4.4h-19
		L111,387.1z"/>
	<path class="st0" d="M134.8,387.1c0.8-2.6,1.5-4.8,1.5-5c0-0.3,4.3-0.5,9.6-0.5c8.4,0,9.5,0.3,9,2c-0.3,1.1-0.9,3.4-1.2,5
		c-0.6,3-0.9,3.1-10.5,3.1h-9.9L134.8,387.1z"/>
	<path class="st0" d="M158.9,387.6c0.4-2.3,0.9-4.5,1.2-5c0.2-0.5,4.6-1,9.9-1c7,0,9.3,0.4,9,1.6c-0.2,0.9-0.7,3.2-1,5l-0.6,3.5h-19
		L158.9,387.6z"/>
	<path class="st0" d="M182.6,388.9c0.3-1.6,0.6-3.8,0.6-5c0-2,1.2-2.3,9.5-2.3c9.4,0,9.5,0,9.5,3.1c0,6.7-0.5,7.1-10.7,7.1
		C182.2,391.7,182,391.7,182.6,388.9L182.6,388.9z"/>
	<path class="st0" d="M206.6,389.8c0.3-1.1,0.6-3.4,0.6-5c0-3.1,0.1-3.1,9.5-3.1h9.5v10.2h-10.1
		C207.3,391.7,206.1,391.4,206.6,389.8L206.6,389.8z"/>
	<path class="st0" d="M231.1,386.7v-5H250v10.2h-18.9V386.7z"/>
	<path class="st0" d="M255,386.7v-5h18.9v10.2H255V386.7z"/>
	<path class="st0" d="M279,386.7v-5h18.9v10.2H279V386.7z"/>
	<path class="st0" d="M303,388.7c0-1.7-0.3-3.9-0.6-5c-0.5-1.8,0.7-2,9-2h9.6l0.6,3.5c0.3,1.9,0.8,4.2,1,5c0.3,1.2-2.1,1.6-9.6,1.6
		C303.1,391.7,303,391.7,303,388.7L303,388.7z"/>
	<path class="st0" d="M327.4,390.2c-0.2-0.9-0.7-3.2-1-5l-0.6-3.5h9.5c8.1,0,9.5,0.3,9.9,2.3c0.3,1.2,0.8,3.6,1.1,5
		c0.6,2.9,0.5,2.9-8.9,2.9C330.6,391.7,327.6,391.2,327.4,390.2L327.4,390.2z"/>
	<path class="st0" d="M350.9,387.8c-0.6-2.2-1.1-4.4-1.1-5s4.2-1.1,9.4-1.1c9.1,0,9.4,0.1,10,3.1c0.3,1.7,0.9,3.9,1.2,5
		c0.5,1.8-0.6,2-8.9,2H352L350.9,387.8z"/>
	<path class="st0" d="M374.8,387.8c-0.6-2.2-1.1-4.4-1.1-5s4.1-1.1,9.3-1.1h9.3l1.2,4.2c0.7,2.3,1.2,4.6,1.2,5
		c0,0.5-4.2,0.9-9.4,0.9h-9.4L374.8,387.8z"/>
	<path class="st0" d="M398.2,385.1c-1.7-5.4-2.6-6.9-5.1-7.9c-2.4-0.9-3.6-2.5-4.6-6l-1.5-4.8h28.5l4.1,11.7
		c2.3,6.4,4.1,12.1,4.1,12.7c0,0.5-5.3,1-11.7,1h-11.7L398.2,385.1z"/>
	<path class="st0" d="M427.3,387.3c-0.9-2.5-1.7-4.7-1.7-5s3.6-0.6,7.9-0.6h7.9l2.1,4.5c1.2,2.5,2.1,4.7,2.1,5s-3.7,0.6-8.3,0.6H429
		L427.3,387.3z"/>
	<path class="st0" d="M74.5,371.4l2.1-5h14.9c8.2,0,14.9,0.3,14.9,0.7c0,0.4-0.7,2.7-1.5,5l-1.5,4.4H72.3L74.5,371.4z"/>
	<path class="st0" d="M108.5,376c0-0.3,0.8-2.6,1.7-5l1.7-4.4h8.8c4.8,0,8.8,0.5,8.8,1.1s-0.5,2.9-1.1,5l-1.1,4h-9.4
		C112.7,376.6,108.5,376.3,108.5,376L108.5,376z"/>
	<path class="st0" d="M132.4,375.5c0-0.6,0.5-2.9,1.1-5l1.1-4h18l-0.7,4.1c-0.4,2.3-0.9,4.5-1.2,5
		C150,376.9,132.4,376.8,132.4,375.5L132.4,375.5z"/>
	<path class="st0" d="M155.8,373.7c0.4-1.6,0.9-3.8,1.1-5c0.4-1.9,1.8-2.3,9.5-2.3h9.1l-0.6,3.9c-0.3,2.2-0.6,4.4-0.6,5
		s-4.3,1.1-9.6,1.1C155.4,376.6,155.2,376.5,155.8,373.7L155.8,373.7z"/>
	<path class="st0" d="M179.2,374.3c0-1.2,0.3-3.6,0.6-5c0.6-2.7,1.1-2.9,9.5-2.9c8.7,0,8.9,0.1,8.9,3.1c0,6.7-0.6,7.1-10.1,7.1
		C180.3,376.6,179.2,376.3,179.2,374.3L179.2,374.3z"/>
	<path class="st0" d="M202.6,373.7c0.3-1.6,0.6-3.8,0.6-5c0-2,1.1-2.3,9-2.3h9v10.2h-9.6C202.1,376.6,202,376.5,202.6,373.7
		L202.6,373.7z"/>
	<path class="st0" d="M226.1,371.4v-5h18.6l-0.4,5l-0.4,5h-17.8L226.1,371.4L226.1,371.4z"/>
	<path class="st0" d="M249.1,371.4v-5H268v10.2h-18.9V371.4z"/>
	<path class="st0" d="M272.6,374.6c-0.3-1.1-0.6-3.4-0.6-5c0-3.1,0.1-3.1,9.5-3.1h9.5v10.2h-8.9
		C274.9,376.6,273.1,376.2,272.6,374.6L272.6,374.6z"/>
	<path class="st0" d="M296,374.3c0-1.2-0.3-3.6-0.6-5c-0.6-2.9-0.5-2.9,9-2.9s9.6,0,9.6,3.1c0,1.7,0.3,3.9,0.6,5c0.5,1.8-0.7,2-9,2
		C297,376.6,296,376.3,296,374.3L296,374.3z"/>
	<path class="st0" d="M319.4,375c-0.2-0.9-0.7-3.2-1-5l-0.6-3.5h18.7l0.6,3.9c0.3,2.2,0.6,4.4,0.6,5
		C337.8,377.2,319.9,376.9,319.4,375L319.4,375z"/>
	<path class="st0" d="M342,371.4l-1-5h18.5l1,5l1,5H343L342,371.4z"/>
	<path class="st0" d="M365.7,373c-0.6-1.9-1.2-4.2-1.5-5c-0.3-1.2,1.9-1.6,8.8-1.6h9.3l1.2,4.2c0.7,2.3,1.2,4.6,1.2,5
		c0,0.5-4,0.9-9,0.9C366.8,376.6,366.7,376.6,365.7,373L365.7,373z"/>
	<path class="st0" d="M422.3,372c-0.9-2.5-1.7-4.7-1.7-5s3.6-0.6,7.8-0.6h7.8l1.7,4.4c0.9,2.5,1.7,4.7,1.7,5s-3.6,0.6-7.8,0.6H424
		L422.3,372z"/>
	<path class="st0" d="M78.6,362c0-0.3,0.8-2.6,1.7-5l1.7-4.4h17.6l-1.5,4.6c-0.8,2.6-1.5,4.8-1.5,5c0,0.3-4,0.5-9,0.5
		C82.6,362.6,78.6,362.3,78.6,362L78.6,362z"/>
	<path class="st0" d="M102.3,357.5l1.7-5h8.9c7.7,0,8.8,0.3,8.2,2c-0.3,1.1-0.9,3.4-1.2,5c-0.6,3-0.9,3.1-9.9,3.1h-9.3L102.3,357.5
		L102.3,357.5z"/>
	<path class="st0" d="M124.8,357.8l1.3-4.8l9.1-0.4l9.1-0.4L143,357l-1.3,4.8l-9.1,0.4l-9.1,0.4L124.8,357.8z"/>
	<path class="st0" d="M146.9,359.7c0.4-1.6,0.9-3.8,1.1-5c0.4-1.9,1.8-2.3,9.5-2.3c9.8,0,9.2-0.6,7.4,7.3c-0.6,2.7-1.2,2.9-9.6,2.9
		C146.4,362.6,146.3,362.6,146.9,359.7L146.9,359.7z"/>
	<path class="st0" d="M169.7,358.6c0.3-2.2,0.6-4.4,0.6-5s4-1.1,9.1-1.1h9.1l-0.6,3.9c-0.3,2.2-0.6,4.4-0.6,5s-4,1.1-9.1,1.1h-9.1
		L169.7,358.6z"/>
	<path class="st0" d="M192.3,359.5c0-6.6,0.6-7.1,9.9-7.1h8.7l-0.4,5l-0.4,5h-8.9C192.4,362.6,192.3,362.6,192.3,359.5L192.3,359.5z
		"/>
	<path class="st0" d="M214.6,360.7c0.3-1.1,0.6-3.5,0.6-5.1c0-3.1,0.1-3.1,9.1-3.1h9.1l-0.3,4.7l-0.3,4.7l-9.4,0.4
		C215,362.7,214,362.5,214.6,360.7L214.6,360.7z"/>
	<path class="st0" d="M237.2,357.5v-5h18v10.2h-18V357.5z"/>
	<path class="st0" d="M260,357.5v-5h18v10.2h-18V357.5z"/>
	<path class="st0" d="M282.6,359.7c-1.5-7.1-1.3-7.3,8.4-7.3c7.9,0,9,0.3,9,2.3c0,1.2,0.3,3.6,0.6,5c0.6,2.8,0.5,2.9-8.4,2.9
		C283.7,362.6,283.1,362.5,282.6,359.7L282.6,359.7z"/>
	<path class="st0" d="M304.9,357.5v-5h8.5c8.4,0,8.5,0,9.1,3.5c0.3,1.9,0.8,4.2,1,5c0.3,1.2-2,1.6-9.1,1.6h-9.5V357.5z"/>
	<path class="st0" d="M327.4,358.6c-0.3-2.2-0.6-4.4-0.6-5s3.9-1.1,8.9-1.1h8.9l0.6,3.9c0.3,2.2,0.6,4.4,0.6,5s-3.9,1.1-8.9,1.1H328
		L327.4,358.6z"/>
	<path class="st0" d="M350.4,359.5c-0.3-1.7-0.9-3.9-1.2-5c-0.5-1.8,0.6-2,8.4-2h9l1.1,4c0.6,2.2,1.1,4.4,1.1,5s-3.9,1.1-8.9,1.1
		C351.3,362.6,351,362.5,350.4,359.5L350.4,359.5z"/>
	<path class="st0" d="M373.4,361.7c-0.2-0.5-0.8-2.8-1.2-5l-0.7-4.1h38.8l1.6,5l1.6,5h-19.8C382.8,362.6,373.6,362.2,373.4,361.7
		L373.4,361.7z"/>
	<path class="st0" d="M416.3,357.5l-1.6-5h15.9l1.5,4.4c0.8,2.5,1.5,4.7,1.5,5s-3.6,0.7-7.8,0.7H418L416.3,357.5z"/>
	<path class="st0" d="M84.5,346.2c1-2.3,2.1-2.6,8.6-2.6c6.6,0,7.5,0.3,7.2,2.3c-0.3,1.9-1.7,2.3-8.6,2.6
		C83.6,348.7,83.4,348.6,84.5,346.2L84.5,346.2z"/>
	<path class="st0" d="M104.8,346.7c0.3-1.1,0.6-2.3,0.6-2.6s3.6-0.5,8-0.5s8,0.2,8,0.5c0,3.7-1.6,4.5-9.2,4.5
		C105.3,348.6,104.3,348.4,104.8,346.7L104.8,346.7z"/>
	<path class="st0" d="M125.2,346.2c0.5-2.4,1.3-2.6,8.5-2.6c7,0,7.9,0.3,7.6,2.3c-0.3,1.9-1.7,2.3-8.5,2.6
		C125,348.7,124.6,348.6,125.2,346.2z"/>
	<path class="st0" d="M145.8,346.7c0.3-1.1,0.6-2.3,0.6-2.6s3.6-0.5,8-0.5s8,0.2,8,0.5c0,3.7-1.6,4.5-9.2,4.5
		C146.3,348.6,145.2,348.4,145.8,346.7z"/>
	<path class="st0" d="M166.3,346.1c0-2.4,0.7-2.6,8-2.6s8,0.2,8,2.6s-0.7,2.6-8,2.6C167,348.6,166.3,348.5,166.3,346.1z"/>
	<path class="st0" d="M186.6,346.7c0.3-1.1,0.6-2.3,0.6-2.6s3.6-0.5,8-0.5s8,0.2,8,0.5c0,3.7-1.6,4.5-9.2,4.5
		C187.1,348.6,186.1,348.4,186.6,346.7z"/>
	<path class="st0" d="M207.2,346.1c0-2.4,0.7-2.6,8-2.6s8,0.2,8,2.6s-0.7,2.6-8,2.6S207.2,348.5,207.2,346.1z"/>
	<path class="st0" d="M227.5,346.7c0.3-1.1,0.6-2.3,0.6-2.6s3.7-0.5,8.1-0.5c7.1,0,8,0.3,7.7,2.3c-0.3,1.9-1.7,2.3-8.7,2.6
		C227.9,348.7,227,348.5,227.5,346.7L227.5,346.7z"/>
	<path class="st0" d="M248.1,346.1c0-2.4,0.7-2.6,8-2.6c7.3,0,8,0.2,8,2.6s-0.7,2.6-8,2.6C248.7,348.6,248.1,348.5,248.1,346.1z"/>
	<path class="st0" d="M269,346.1c0-2.5,0.5-2.6,7.7-2.3c6.4,0.3,7.8,0.8,8.1,2.6c0.3,2-0.6,2.3-7.7,2.3
		C269.6,348.6,269,348.5,269,346.1L269,346.1z"/>
	<path class="st0" d="M289,346.1c0-2.4,0.7-2.6,8-2.6s8,0.2,8,2.6s-0.7,2.6-8,2.6C289.6,348.6,289,348.5,289,346.1z"/>
	<path class="st0" d="M309.6,346.1c-0.5-2.5-0.2-2.6,7.6-2.3c6.8,0.3,8.2,0.7,8.5,2.6c0.3,2-0.6,2.3-7.6,2.3
		C311,348.6,310.1,348.4,309.6,346.1z"/>
	<path class="st0" d="M329.8,346.1c0-2.4,0.7-2.6,7.9-2.6c7,0,7.9,0.3,8.4,2.6c0.5,2.4,0,2.6-7.9,2.6
		C330.5,348.6,329.8,348.5,329.8,346.1z"/>
	<path class="st0" d="M350.5,346.1c-0.5-2.5-0.2-2.6,7.6-2.3c6.8,0.3,8.2,0.7,8.5,2.6c0.3,2-0.6,2.3-7.6,2.3
		C351.8,348.6,351,348.4,350.5,346.1z"/>
	<path class="st0" d="M371.4,347.8c-0.4-0.5-0.7-1.6-0.7-2.6c0-1.3,2-1.7,7.9-1.7c7,0,7.9,0.3,8.4,2.6c0.5,2.4,0,2.6-7.2,2.6
		C375.6,348.6,371.7,348.3,371.4,347.8L371.4,347.8z"/>
	<path class="st0" d="M391.4,346.1c-0.5-2.5-0.2-2.6,7.6-2.3c6.8,0.3,8.2,0.7,8.5,2.6c0.3,2-0.6,2.3-7.6,2.3
		C392.8,348.6,391.9,348.4,391.4,346.1z"/>
	<path class="st0" d="M412.2,346.7c-0.3-1.1-0.6-2.3-0.6-2.6s3.6-0.5,7.9-0.5c7.5,0,9.1,0.8,9.1,4.5c0,0.3-3.6,0.5-7.9,0.5
		C414.5,348.6,412.7,348.3,412.2,346.7L412.2,346.7z"/>
	<path class="st0" d="M72.9,318.9c-1.8-1-3.7-2.9-4.2-4.3c-0.8-1.8-1.1-47.8-1.1-153V11l3-3.7l3-3.7h365.3l3,3.7l3,3.7v150.5
		c0,166.1,0.4,154.9-6.2,157.9c-2.2,1-57.1,1.4-182.6,1.3C105.2,320.6,75.5,320.3,72.9,318.9L72.9,318.9z"/>
	<path class="st0" d="M430.5,153.9v-125h-349v249.9h349V153.9z"/>
</g>
</svg>
