<?xml version="1.0" encoding="utf-8"?>
<!-- Generator: Adobe Illustrator 19.0.0, SVG Export Plug-In . SVG Version: 6.00 Build 0)  -->
<svg version="1.1"
	 id="Layer_1" xmlns:rdf="http://www.w3.org/1999/02/22-rdf-syntax-ns#" xmlns:cc="http://creativecommons.org/ns#" xmlns:dc="http://purl.org/dc/elements/1.1/"
	 xmlns="http://www.w3.org/2000/svg" xmlns:xlink="http://www.w3.org/1999/xlink" x="0px" y="0px" viewBox="0 0 512 512"
	 style="enable-background:new 0 0 512 512;" xml:space="preserve">
<style type="text/css">
	.st0{fill:none;stroke:#00FFCC;stroke-width:7;stroke-linecap:round;stroke-linejoin:bevel;}
	.st1{fill:none;stroke:#00FFCC;stroke-width:7;stroke-linecap:square;}
	.st2{fill:none;stroke:#00FFCC;stroke-width:7;}
</style>
<path class="st0" d="M93.1,7.2h324.6c42.7,0,77.7,35,77.7,76.4v347.1c0,41.4-33.5,76.4-77.7,76.4H93.1c-42.7,0-77.7-35-77.7-76.4
	V83.6C15.4,40.6,50.4,7.2,93.1,7.2L93.1,7.2z"/>
<path class="st1" d="M50.4,40.6h408.4v431.5H50.4V40.6z"/>
<path class="st1" d="M309.5,153.7c0,35-30.4,65.3-67.1,65.3s-67.1-30.3-67.1-65.3s29-65.3,67.1-65.3S309.5,117.1,309.5,153.7z"/>
<path class="st2" d="M154.1,279.5c9.2-36.6,16.7-58.9,29-57.3h128c13.7,4.8,21.3,30.3,21.3,57.3H154.1z"/>
<g>
	<path class="st1" d="M116,312.9h301.7v33.4H116V312.9z"/>
	<path class="st1" d="M116,368.7h268.2V399H116V368.7z"/>
	<path class="st1" d="M116,422.8h245.4v28.7H116V422.8z"/>
</g>
</svg>
