<?xml version="1.0" encoding="utf-8"?>
<!-- Generator: Adobe Illustrator 19.0.0, SVG Export Plug-In . SVG Version: 6.00 Build 0)  -->
<svg version="1.1" id="Layer_1" xmlns="http://www.w3.org/2000/svg" xmlns:xlink="http://www.w3.org/1999/xlink" x="0px" y="0px"
	 viewBox="0 0 512 512" style="enable-background:new 0 0 512 512;" xml:space="preserve">
<style type="text/css">
	.st0{fill:#00A2AA;stroke:#000000;stroke-miterlimit:10;}
	.st1{fill:#FFFFFF;}
	.st2{fill:#E5E5E5;}
</style>
<g id="Layer_1_1_">
</g>
<g id="Pen">
</g>
<g id="Code_Braces">
</g>
<g id="Code_Braces_Copy">
</g>
<g id="Pen_Copy">
</g>
<g id="XMLID_9_">
	<g>
		<rect id="XMLID_3_" x="0" y="0" class="st0" width="512" height="512"/>
	</g>
	<g id="XMLID_5_">
		<g id="XMLID_16_">
			<path id="XMLID_24_" class="st1" d="M315.5,106.2c-4.1-0.9-11.8-2.2-16.6-2.3v17.3c1.4,0.1,6.1,1.1,7.6,1.4L315.5,106.2z"/>
			<path id="XMLID_26_" class="st1" d="M346.9,202.6v-49.4c0-7.6-0.2-19.7-1.8-25.5l-17.3,32.2l-1.2,44.3c0,23.3,7.7,37.6,23.7,42.7
				v0.6c-16,5.1-23.7,19.7-23.7,43.8v46c0,6.8-0.4,12.4-1.5,16.9c-1,4.6-2.6,8.2-4.7,11c-2.1,2.8-5.2,4.8-8.4,6.1
				c-3.3,1.3-7,2-11.9,2.1v17.3c16-0.4,27.1-4.6,34.8-12.4s11.9-20.1,11.9-36.6v-48.5c0-23.8,8.4-36.6,25.1-38.4V240
				C355.3,238.3,346.9,225.8,346.9,202.6z"/>
		</g>
		<g id="XMLID_1_">
			<path id="XMLID_4_" class="st1" d="M159.2,265.5c4.3,6.4,6.6,15.6,6.6,27.5v48.5c0,10.3,1.5,18.9,4.5,25.8l15.3-28
				c0-0.7-0.3-1.4-0.3-2.1v-46c0-24.2-8.4-38.9-23.7-43.8v-0.6c15.3-4.9,23.7-19.2,23.7-42.7v-47.8c0-12,2.3-20.8,6.3-26.3
				c4-5.5,10.4-8.5,20.1-9.1v-17.3c-15.3,0.4-26.7,4.6-34.4,12.5s-11.6,20.2-11.6,36.9v49.4c0,23.1-8.4,35.4-25.8,37.3v14.7
				C148.4,255.4,154.9,259.1,159.2,265.5z"/>
			<path id="XMLID_19_" class="st1" d="M201,390c2.7,0.3,5.2,0.6,8.7,0.7v-16.4L201,390z"/>
		</g>
		<g id="XMLID_2_">
			<g id="XMLID_13_">
				<path id="XMLID_15_" class="st1" d="M197.7,389.9l0.3-6.5l-5.8,3.5l-0.3-6.8l-6.5,3.1l-0.8-7.2L178,379l-1.1-7.3l-6.8,2.9
					l155.5-281c1.4,2.4,4.7,7.4,11.1,11.1c7,4,13.7,4.2,16.4,4.1C301.3,202.5,249.5,296.2,197.7,389.9z"/>
				<path id="XMLID_14_" class="st1" d="M169,376.8l6.1-1.7l1.8,6.1l5.8-1.9l1.5,5.9l5.9-1.8l1,5.6l5.1-2.3l0.4,5.3l-32.8,26.3
					L169,377C169,376.9,169,376.8,169,376.8z"/>
			</g>
			<path id="XMLID_7_" class="st2" d="M173.8,410.3c-1,0.1-3.1,0.2-5.2-1c-2-1.1-2.9-2.8-3.3-3.7c-0.6,4.2-1,8.5-1.6,12.7
				L173.8,410.3z"/>
		</g>
	</g>
</g>
</svg>
