<?xml version="1.0" encoding="UTF-8" standalone="no"?>
<!-- Generator: Adobe Illustrator 19.0.0, SVG Export Plug-In . SVG Version: 6.00 Build 0)  -->

<svg
   xmlns:dc="http://purl.org/dc/elements/1.1/"
   xmlns:cc="http://creativecommons.org/ns#"
   xmlns:rdf="http://www.w3.org/1999/02/22-rdf-syntax-ns#"
   xmlns:svg="http://www.w3.org/2000/svg"
   xmlns="http://www.w3.org/2000/svg"
   xmlns:sodipodi="http://sodipodi.sourceforge.net/DTD/sodipodi-0.dtd"
   xmlns:inkscape="http://www.inkscape.org/namespaces/inkscape"
   version="1.1"
   id="Layer_1"
   x="0px"
   y="0px"
   viewBox="0 0 512 512"
   style="enable-background:new 0 0 512 512;"
   xml:space="preserve"
   sodipodi:docname="projects.svg"
   inkscape:version="0.92.1 r15371"><metadata
     id="metadata30"><rdf:RDF><cc:Work
         rdf:about=""><dc:format>image/svg+xml</dc:format><dc:type
           rdf:resource="http://purl.org/dc/dcmitype/StillImage" /></cc:Work></rdf:RDF></metadata><defs
     id="defs28" /><sodipodi:namedview
     pagecolor="#ffffff"
     bordercolor="#666666"
     borderopacity="1"
     objecttolerance="10"
     gridtolerance="10"
     guidetolerance="10"
     inkscape:pageopacity="0"
     inkscape:pageshadow="2"
     inkscape:window-width="3200"
     inkscape:window-height="1675"
     id="namedview26"
     showgrid="false"
     inkscape:zoom="1.3037281"
     inkscape:cx="440.90547"
     inkscape:cy="265.62751"
     inkscape:window-x="-13"
     inkscape:window-y="-13"
     inkscape:window-maximized="1"
     inkscape:current-layer="Layer_1" /><style
     type="text/css"
     id="style2">
	.st0{fill:#00A2AA;stroke:#000000;stroke-miterlimit:10;}
	.st1{fill:#FFFFFF;}
	.st2{fill:#E5E5E5;}
</style><g
     id="Layer_1_1_" /><g
     id="Pen" /><g
     id="Code_Braces" /><g
     id="Code_Braces_Copy" /><g
     id="Pen_Copy" /><g
     style="stroke:none"
     id="g10"
     transform="translate(9.9689316e-7,1.6989019)"><rect
       style="fill:#0044b5;stroke:none;stroke-miterlimit:10;fill-opacity:1"
       height="512"
       width="512"
       class="st0"
       y="0"
       x="0"
       id="XMLID_3_" /></g><g
     style="stroke:none"
     id="XMLID_5_"
     transform="matrix(1.608335,0,0,1.3212696,-155.57293,-80.480052)"><g
       style="stroke:none"
       id="XMLID_16_"><path
         style="fill:#ffffff;stroke:none"
         inkscape:connector-curvature="0"
         d="m 315.5,106.2 c -4.1,-0.9 -11.8,-2.2 -16.6,-2.3 v 17.3 c 1.4,0.1 6.1,1.1 7.6,1.4 z"
         class="st1"
         id="XMLID_24_" /><path
         style="fill:#ffffff;stroke:none"
         inkscape:connector-curvature="0"
         d="m 346.9,202.6 v -49.4 c 0,-7.6 -0.2,-19.7 -1.8,-25.5 l -17.3,32.2 -1.2,44.3 c 0,23.3 7.7,37.6 23.7,42.7 v 0.6 c -16,5.1 -23.7,19.7 -23.7,43.8 v 46 c 0,6.8 -0.4,12.4 -1.5,16.9 -1,4.6 -2.6,8.2 -4.7,11 -2.1,2.8 -5.2,4.8 -8.4,6.1 -3.3,1.3 -7,2 -11.9,2.1 v 17.3 c 16,-0.4 27.1,-4.6 34.8,-12.4 7.7,-7.8 11.9,-20.1 11.9,-36.6 v -48.5 c 0,-23.8 8.4,-36.6 25.1,-38.4 V 240 c -16.6,-1.7 -25,-14.2 -25,-37.4 z"
         class="st1"
         id="XMLID_26_" /></g><g
       style="stroke:none"
       id="XMLID_1_"><path
         style="fill:#ffffff;stroke:none"
         inkscape:connector-curvature="0"
         d="m 159.2,265.5 c 4.3,6.4 6.6,15.6 6.6,27.5 v 48.5 c 0,10.3 1.5,18.9 4.5,25.8 l 15.3,-28 c 0,-0.7 -0.3,-1.4 -0.3,-2.1 v -46 c 0,-24.2 -8.4,-38.9 -23.7,-43.8 v -0.6 c 15.3,-4.9 23.7,-19.2 23.7,-42.7 v -47.8 c 0,-12 2.3,-20.8 6.3,-26.3 4,-5.5 10.4,-8.5 20.1,-9.1 v -17.3 c -15.3,0.4 -26.7,4.6 -34.4,12.5 -7.7,7.9 -11.6,20.2 -11.6,36.9 v 49.4 c 0,23.1 -8.4,35.4 -25.8,37.3 v 14.7 c 8.5,1 15,4.7 19.3,11.1 z"
         class="st1"
         id="XMLID_4_" /><path
         style="fill:#ffffff;stroke:none"
         inkscape:connector-curvature="0"
         d="m 201,390 c 2.7,0.3 5.2,0.6 8.7,0.7 v -16.4 z"
         class="st1"
         id="XMLID_19_" /></g><g
       style="stroke:none"
       id="XMLID_2_"><g
         style="stroke:none"
         id="XMLID_13_"><path
           style="fill:#ffffff;stroke:none"
           inkscape:connector-curvature="0"
           d="m 197.7,389.9 0.3,-6.5 -5.8,3.5 -0.3,-6.8 -6.5,3.1 -0.8,-7.2 -6.6,3 -1.1,-7.3 -6.8,2.9 155.5,-281 c 1.4,2.4 4.7,7.4 11.1,11.1 7,4 13.7,4.2 16.4,4.1 -51.8,93.7 -103.6,187.4 -155.4,281.1 z"
           class="st1"
           id="XMLID_15_" /><path
           style="fill:#ffffff;stroke:none"
           inkscape:connector-curvature="0"
           d="m 169,376.8 6.1,-1.7 1.8,6.1 5.8,-1.9 1.5,5.9 5.9,-1.8 1,5.6 5.1,-2.3 0.4,5.3 -32.8,26.3 5.2,-41.3 c 0,-0.1 0,-0.2 0,-0.2 z"
           class="st1"
           id="XMLID_14_" /></g><path
         style="fill:#e5e5e5;stroke:none"
         inkscape:connector-curvature="0"
         d="m 173.8,410.3 c -1,0.1 -3.1,0.2 -5.2,-1 -2,-1.1 -2.9,-2.8 -3.3,-3.7 -0.6,4.2 -1,8.5 -1.6,12.7 z"
         class="st2"
         id="XMLID_7_" /></g></g></svg>