<?xml version="1.0" encoding="UTF-8" standalone="no"?>
<!-- Svg Vector Icons : http://www.onlinewebfonts.com/icon -->

<svg
   xmlns:dc="http://purl.org/dc/elements/1.1/"
   xmlns:cc="http://creativecommons.org/ns#"
   xmlns:rdf="http://www.w3.org/1999/02/22-rdf-syntax-ns#"
   xmlns:svg="http://www.w3.org/2000/svg"
   xmlns="http://www.w3.org/2000/svg"
   xmlns:xlink="http://www.w3.org/1999/xlink"
   xmlns:sodipodi="http://sodipodi.sourceforge.net/DTD/sodipodi-0.dtd"
   xmlns:inkscape="http://www.inkscape.org/namespaces/inkscape"
   version="1.1"
   x="0px"
   y="0px"
   viewBox="0 0 256 256"
   enable-background="new 0 0 1000 1000"
   xml:space="preserve"
   id="svg4452"
   inkscape:version="0.92.1 r15371"
   width="256"
   height="256"
   sodipodi:docname="ptplanner.svg"><defs
     id="defs4462"><linearGradient
       id="linearGradient6872"><stop
         id="stop6874"
         offset="0"
         style="stop-color:#e2404b;stop-opacity:1;" /><stop
         style="stop-color:#e75542;stop-opacity:1;"
         offset="0.26660073"
         id="stop6876" /><stop
         style="stop-color:#ec6b37;stop-opacity:1;"
         offset="0.5"
         id="stop6878" /><stop
         id="stop6880"
         offset="0.75"
         style="stop-color:#f1802c;stop-opacity:1;" /><stop
         id="stop6882"
         offset="1"
         style="stop-color:#f79622;stop-opacity:1;" /></linearGradient><linearGradient
       id="linearGradient6860"><stop
         id="stop6862"
         offset="0"
         style="stop-color:#e2404b;stop-opacity:1;" /><stop
         style="stop-color:#e75542;stop-opacity:1;"
         offset="0.16307789"
         id="stop6864" /><stop
         style="stop-color:#ec6b37;stop-opacity:1;"
         offset="0.5"
         id="stop6866" /><stop
         id="stop6868"
         offset="0.65207511"
         style="stop-color:#f1802c;stop-opacity:1;" /><stop
         id="stop6870"
         offset="1"
         style="stop-color:#f79622;stop-opacity:1;" /></linearGradient><linearGradient
       inkscape:collect="always"
       xlink:href="#linearGradient4365"
       id="linearGradient4978"
       x1="380.28958"
       y1="613.90619"
       x2="571.12189"
       y2="380.95044"
       gradientUnits="userSpaceOnUse" /><linearGradient
       inkscape:collect="always"
       xlink:href="#linearGradient4365"
       id="linearGradient4381"
       x1="45.85207"
       y1="797.72034"
       x2="796.28345"
       y2="184.55765"
       gradientUnits="userSpaceOnUse"
       gradientTransform="matrix(0.3113131,0,0,0.32486064,351.1285,340.60287)" /><linearGradient
       id="linearGradient4365"><stop
         style="stop-color:#e2404d;stop-opacity:1;"
         offset="0"
         id="stop4367" /><stop
         id="stop4391"
         offset="0.25"
         style="stop-color:#e75542;stop-opacity:1;" /><stop
         id="stop4387"
         offset="0.5"
         style="stop-color:#ec6b37;stop-opacity:1;" /><stop
         style="stop-color:#f1802c;stop-opacity:1;"
         offset="0.75"
         id="stop4389" /><stop
         style="stop-color:#f79622;stop-opacity:1;"
         offset="1"
         id="stop4369" /></linearGradient><linearGradient
       inkscape:collect="always"
       xlink:href="#linearGradient4365-0"
       id="linearGradient4978-0"
       x1="380.28958"
       y1="613.90619"
       x2="571.12189"
       y2="380.95044"
       gradientUnits="userSpaceOnUse" /><linearGradient
       id="linearGradient4365-0"><stop
         style="stop-color:#e2404b;stop-opacity:1;"
         offset="0"
         id="stop4367-0" /><stop
         id="stop4391-7"
         offset="0.25"
         style="stop-color:#e75542;stop-opacity:1;" /><stop
         id="stop4387-2"
         offset="0.5"
         style="stop-color:#ec6b37;stop-opacity:1;" /><stop
         style="stop-color:#f1802c;stop-opacity:1;"
         offset="0.75"
         id="stop4389-5" /><stop
         style="stop-color:#f79622;stop-opacity:1;"
         offset="1"
         id="stop4369-5" /></linearGradient><linearGradient
       y2="380.95044"
       x2="571.12189"
       y1="613.90619"
       x1="380.28958"
       gradientUnits="userSpaceOnUse"
       id="linearGradient6083"
       xlink:href="#linearGradient4365-0"
       inkscape:collect="always" /><linearGradient
       inkscape:collect="always"
       xlink:href="#linearGradient4365"
       id="linearGradient6494"
       x1="380.51947"
       y1="486.59802"
       x2="412.51947"
       y2="486.59802"
       gradientUnits="userSpaceOnUse" /><linearGradient
       inkscape:collect="always"
       xlink:href="#linearGradient4365"
       id="linearGradient6496"
       x1="380.51947"
       y1="486.59802"
       x2="412.51947"
       y2="486.59802"
       gradientUnits="userSpaceOnUse" /><linearGradient
       inkscape:collect="always"
       xlink:href="#linearGradient4365"
       id="linearGradient6498"
       x1="380.51947"
       y1="486.59802"
       x2="412.51947"
       y2="486.59802"
       gradientUnits="userSpaceOnUse" /><linearGradient
       inkscape:collect="always"
       xlink:href="#linearGradient4365"
       id="linearGradient6500"
       x1="380.51947"
       y1="486.59802"
       x2="412.51947"
       y2="486.59802"
       gradientUnits="userSpaceOnUse" /><linearGradient
       inkscape:collect="always"
       xlink:href="#linearGradient4365"
       id="linearGradient6502"
       x1="380.51947"
       y1="486.59802"
       x2="412.51947"
       y2="486.59802"
       gradientUnits="userSpaceOnUse" /><linearGradient
       inkscape:collect="always"
       xlink:href="#linearGradient4365"
       id="linearGradient6504"
       x1="380.51947"
       y1="486.59802"
       x2="412.51947"
       y2="486.59802"
       gradientUnits="userSpaceOnUse" /><linearGradient
       inkscape:collect="always"
       xlink:href="#linearGradient4365"
       id="linearGradient6506"
       x1="380.51947"
       y1="486.59802"
       x2="412.51947"
       y2="486.59802"
       gradientUnits="userSpaceOnUse" /><linearGradient
       inkscape:collect="always"
       xlink:href="#linearGradient4365"
       id="linearGradient6508"
       x1="380.51947"
       y1="486.59802"
       x2="412.51947"
       y2="486.59802"
       gradientUnits="userSpaceOnUse" /><linearGradient
       inkscape:collect="always"
       xlink:href="#linearGradient4365"
       id="linearGradient6510"
       x1="380.51947"
       y1="486.59802"
       x2="412.51947"
       y2="486.59802"
       gradientUnits="userSpaceOnUse" /><linearGradient
       inkscape:collect="always"
       xlink:href="#linearGradient4365"
       id="linearGradient6512"
       x1="380.51947"
       y1="486.59802"
       x2="412.51947"
       y2="486.59802"
       gradientUnits="userSpaceOnUse" /><linearGradient
       inkscape:collect="always"
       xlink:href="#linearGradient4365"
       id="linearGradient6514"
       x1="380.51947"
       y1="486.59802"
       x2="412.51947"
       y2="486.59802"
       gradientUnits="userSpaceOnUse" /><linearGradient
       inkscape:collect="always"
       xlink:href="#linearGradient4365"
       id="linearGradient6516"
       x1="380.51947"
       y1="486.59802"
       x2="412.51947"
       y2="486.59802"
       gradientUnits="userSpaceOnUse" /><linearGradient
       inkscape:collect="always"
       xlink:href="#linearGradient4365"
       id="linearGradient6518"
       x1="380.51947"
       y1="486.59802"
       x2="412.51947"
       y2="486.59802"
       gradientUnits="userSpaceOnUse" /><linearGradient
       inkscape:collect="always"
       xlink:href="#linearGradient4365"
       id="linearGradient6520"
       x1="380.51947"
       y1="486.59802"
       x2="412.51947"
       y2="486.59802"
       gradientUnits="userSpaceOnUse" /><linearGradient
       inkscape:collect="always"
       xlink:href="#linearGradient4365"
       id="linearGradient6522"
       x1="380.51947"
       y1="486.59802"
       x2="412.51947"
       y2="486.59802"
       gradientUnits="userSpaceOnUse" /><linearGradient
       inkscape:collect="always"
       xlink:href="#linearGradient4365"
       id="linearGradient6524"
       x1="380.51947"
       y1="486.59802"
       x2="412.51947"
       y2="486.59802"
       gradientUnits="userSpaceOnUse" /><linearGradient
       inkscape:collect="always"
       xlink:href="#linearGradient4365"
       id="linearGradient6526"
       x1="380.51947"
       y1="486.59802"
       x2="412.51947"
       y2="486.59802"
       gradientUnits="userSpaceOnUse" /><linearGradient
       inkscape:collect="always"
       xlink:href="#linearGradient4365"
       id="linearGradient6528"
       x1="380.51947"
       y1="486.59802"
       x2="412.51947"
       y2="486.59802"
       gradientUnits="userSpaceOnUse" /><linearGradient
       inkscape:collect="always"
       xlink:href="#linearGradient4365"
       id="linearGradient6530"
       x1="380.51947"
       y1="486.59802"
       x2="412.51947"
       y2="486.59802"
       gradientUnits="userSpaceOnUse" /><linearGradient
       inkscape:collect="always"
       xlink:href="#linearGradient4365"
       id="linearGradient6532"
       x1="380.51947"
       y1="486.59802"
       x2="412.51947"
       y2="486.59802"
       gradientUnits="userSpaceOnUse" /><linearGradient
       inkscape:collect="always"
       xlink:href="#linearGradient4365"
       id="linearGradient6534"
       x1="380.51947"
       y1="486.59802"
       x2="412.51947"
       y2="486.59802"
       gradientUnits="userSpaceOnUse" /><linearGradient
       inkscape:collect="always"
       xlink:href="#linearGradient4365"
       id="linearGradient6536"
       x1="380.51947"
       y1="486.59802"
       x2="412.51947"
       y2="486.59802"
       gradientUnits="userSpaceOnUse" /><linearGradient
       inkscape:collect="always"
       xlink:href="#linearGradient4365"
       id="linearGradient6538"
       x1="380.51947"
       y1="486.59802"
       x2="412.51947"
       y2="486.59802"
       gradientUnits="userSpaceOnUse" /><linearGradient
       inkscape:collect="always"
       xlink:href="#linearGradient4365"
       id="linearGradient6540"
       x1="380.51947"
       y1="486.59802"
       x2="412.51947"
       y2="486.59802"
       gradientUnits="userSpaceOnUse" /><linearGradient
       inkscape:collect="always"
       xlink:href="#linearGradient4365"
       id="linearGradient6542"
       x1="380.51947"
       y1="486.59802"
       x2="412.51947"
       y2="486.59802"
       gradientUnits="userSpaceOnUse" /><linearGradient
       inkscape:collect="always"
       xlink:href="#linearGradient4365"
       id="linearGradient6544"
       x1="380.51947"
       y1="486.59802"
       x2="412.51947"
       y2="486.59802"
       gradientUnits="userSpaceOnUse" /><linearGradient
       inkscape:collect="always"
       xlink:href="#linearGradient4365"
       id="linearGradient6546"
       x1="380.51947"
       y1="486.59802"
       x2="412.51947"
       y2="486.59802"
       gradientUnits="userSpaceOnUse" /><linearGradient
       inkscape:collect="always"
       xlink:href="#linearGradient4365"
       id="linearGradient6548"
       x1="380.51947"
       y1="486.59802"
       x2="412.51947"
       y2="486.59802"
       gradientUnits="userSpaceOnUse" /><linearGradient
       inkscape:collect="always"
       xlink:href="#linearGradient4365"
       id="linearGradient6566"
       gradientUnits="userSpaceOnUse"
       x1="380.51947"
       y1="486.59802"
       x2="412.51947"
       y2="486.59802" /><linearGradient
       inkscape:collect="always"
       xlink:href="#linearGradient4365"
       id="linearGradient6682"
       gradientUnits="userSpaceOnUse"
       x1="380.51947"
       y1="486.59802"
       x2="412.51947"
       y2="486.59802" /><linearGradient
       inkscape:collect="always"
       xlink:href="#linearGradient4365"
       id="linearGradient6684"
       gradientUnits="userSpaceOnUse"
       x1="380.51947"
       y1="486.59802"
       x2="412.51947"
       y2="486.59802" /><linearGradient
       inkscape:collect="always"
       xlink:href="#linearGradient4365"
       id="linearGradient6686"
       gradientUnits="userSpaceOnUse"
       x1="380.51947"
       y1="486.59802"
       x2="412.51947"
       y2="486.59802" /><linearGradient
       inkscape:collect="always"
       xlink:href="#linearGradient4365"
       id="linearGradient6688"
       gradientUnits="userSpaceOnUse"
       x1="380.51947"
       y1="486.59802"
       x2="412.51947"
       y2="486.59802" /><linearGradient
       inkscape:collect="always"
       xlink:href="#linearGradient4365"
       id="linearGradient6690"
       gradientUnits="userSpaceOnUse"
       x1="380.51947"
       y1="486.59802"
       x2="412.51947"
       y2="486.59802" /><linearGradient
       inkscape:collect="always"
       xlink:href="#linearGradient4365"
       id="linearGradient6692"
       gradientUnits="userSpaceOnUse"
       x1="380.51947"
       y1="486.59802"
       x2="412.51947"
       y2="486.59802" /><linearGradient
       inkscape:collect="always"
       xlink:href="#linearGradient4365"
       id="linearGradient6694"
       gradientUnits="userSpaceOnUse"
       x1="380.51947"
       y1="486.59802"
       x2="412.51947"
       y2="486.59802" /><linearGradient
       inkscape:collect="always"
       xlink:href="#linearGradient4365"
       id="linearGradient6696"
       gradientUnits="userSpaceOnUse"
       x1="380.51947"
       y1="486.59802"
       x2="412.51947"
       y2="486.59802" /><linearGradient
       inkscape:collect="always"
       xlink:href="#linearGradient4365"
       id="linearGradient6698"
       gradientUnits="userSpaceOnUse"
       x1="380.51947"
       y1="486.59802"
       x2="412.51947"
       y2="486.59802" /><linearGradient
       inkscape:collect="always"
       xlink:href="#linearGradient4365"
       id="linearGradient6700"
       gradientUnits="userSpaceOnUse"
       x1="380.51947"
       y1="486.59802"
       x2="412.51947"
       y2="486.59802" /><linearGradient
       inkscape:collect="always"
       xlink:href="#linearGradient4365"
       id="linearGradient6702"
       gradientUnits="userSpaceOnUse"
       x1="380.51947"
       y1="486.59802"
       x2="412.51947"
       y2="486.59802" /><linearGradient
       inkscape:collect="always"
       xlink:href="#linearGradient4365"
       id="linearGradient6704"
       gradientUnits="userSpaceOnUse"
       x1="380.51947"
       y1="486.59802"
       x2="412.51947"
       y2="486.59802" /><linearGradient
       inkscape:collect="always"
       xlink:href="#linearGradient4365"
       id="linearGradient6706"
       gradientUnits="userSpaceOnUse"
       x1="380.51947"
       y1="486.59802"
       x2="412.51947"
       y2="486.59802" /><linearGradient
       inkscape:collect="always"
       xlink:href="#linearGradient4365"
       id="linearGradient6708"
       gradientUnits="userSpaceOnUse"
       x1="380.51947"
       y1="486.59802"
       x2="412.51947"
       y2="486.59802" /><linearGradient
       inkscape:collect="always"
       xlink:href="#linearGradient4365"
       id="linearGradient6710"
       gradientUnits="userSpaceOnUse"
       x1="380.51947"
       y1="486.59802"
       x2="412.51947"
       y2="486.59802" /><linearGradient
       inkscape:collect="always"
       xlink:href="#linearGradient4365"
       id="linearGradient6712"
       gradientUnits="userSpaceOnUse"
       x1="380.51947"
       y1="486.59802"
       x2="412.51947"
       y2="486.59802" /><linearGradient
       inkscape:collect="always"
       xlink:href="#linearGradient4365"
       id="linearGradient6714"
       gradientUnits="userSpaceOnUse"
       x1="380.51947"
       y1="486.59802"
       x2="412.51947"
       y2="486.59802" /><linearGradient
       inkscape:collect="always"
       xlink:href="#linearGradient4365"
       id="linearGradient6716"
       gradientUnits="userSpaceOnUse"
       x1="380.51947"
       y1="486.59802"
       x2="412.51947"
       y2="486.59802" /><linearGradient
       inkscape:collect="always"
       xlink:href="#linearGradient4365"
       id="linearGradient6718"
       gradientUnits="userSpaceOnUse"
       x1="380.51947"
       y1="486.59802"
       x2="412.51947"
       y2="486.59802" /><linearGradient
       inkscape:collect="always"
       xlink:href="#linearGradient4365"
       id="linearGradient6720"
       gradientUnits="userSpaceOnUse"
       x1="380.51947"
       y1="486.59802"
       x2="412.51947"
       y2="486.59802" /><linearGradient
       inkscape:collect="always"
       xlink:href="#linearGradient4365"
       id="linearGradient6722"
       gradientUnits="userSpaceOnUse"
       x1="380.51947"
       y1="486.59802"
       x2="412.51947"
       y2="486.59802" /><linearGradient
       inkscape:collect="always"
       xlink:href="#linearGradient4365"
       id="linearGradient6724"
       gradientUnits="userSpaceOnUse"
       x1="380.51947"
       y1="486.59802"
       x2="412.51947"
       y2="486.59802" /><linearGradient
       inkscape:collect="always"
       xlink:href="#linearGradient4365"
       id="linearGradient6726"
       gradientUnits="userSpaceOnUse"
       x1="380.51947"
       y1="486.59802"
       x2="412.51947"
       y2="486.59802" /><linearGradient
       inkscape:collect="always"
       xlink:href="#linearGradient4365"
       id="linearGradient6728"
       gradientUnits="userSpaceOnUse"
       x1="380.51947"
       y1="486.59802"
       x2="412.51947"
       y2="486.59802" /><linearGradient
       inkscape:collect="always"
       xlink:href="#linearGradient4365"
       id="linearGradient6730"
       gradientUnits="userSpaceOnUse"
       x1="380.51947"
       y1="486.59802"
       x2="412.51947"
       y2="486.59802" /><linearGradient
       inkscape:collect="always"
       xlink:href="#linearGradient4365"
       id="linearGradient6732"
       gradientUnits="userSpaceOnUse"
       x1="380.51947"
       y1="486.59802"
       x2="412.51947"
       y2="486.59802" /><linearGradient
       inkscape:collect="always"
       xlink:href="#linearGradient4365"
       id="linearGradient6734"
       gradientUnits="userSpaceOnUse"
       x1="380.51947"
       y1="486.59802"
       x2="412.51947"
       y2="486.59802" /><linearGradient
       inkscape:collect="always"
       xlink:href="#linearGradient4365"
       id="linearGradient6736"
       gradientUnits="userSpaceOnUse"
       x1="380.51947"
       y1="486.59802"
       x2="412.51947"
       y2="486.59802" /><linearGradient
       inkscape:collect="always"
       xlink:href="#linearGradient4365"
       id="linearGradient6738"
       gradientUnits="userSpaceOnUse"
       x1="380.51947"
       y1="486.59802"
       x2="412.51947"
       y2="486.59802" /><linearGradient
       inkscape:collect="always"
       xlink:href="#linearGradient4365-0"
       id="linearGradient28434"
       gradientUnits="userSpaceOnUse"
       gradientTransform="translate(211.2,105.6)"
       x1="179.05702"
       y1="497.02695"
       x2="400.40244"
       y2="368.93872" /><linearGradient
       inkscape:collect="always"
       xlink:href="#linearGradient4365-0"
       id="linearGradient29028"
       gradientUnits="userSpaceOnUse"
       gradientTransform="translate(211.2,105.6)"
       x1="179.05702"
       y1="497.02695"
       x2="400.40244"
       y2="368.93872" /><linearGradient
       inkscape:collect="always"
       xlink:href="#linearGradient6872"
       id="linearGradient29037"
       x1="0.273"
       y1="240.70671"
       x2="481.13962"
       y2="240.70671"
       gradientUnits="userSpaceOnUse" /><linearGradient
       inkscape:collect="always"
       xlink:href="#linearGradient6872"
       id="linearGradient29039"
       gradientUnits="userSpaceOnUse"
       x1="0.273"
       y1="240.70671"
       x2="481.13962"
       y2="240.70671" /><linearGradient
       inkscape:collect="always"
       xlink:href="#linearGradient6872"
       id="linearGradient29041"
       gradientUnits="userSpaceOnUse"
       x1="0.273"
       y1="240.70671"
       x2="481.13962"
       y2="240.70671" /><linearGradient
       inkscape:collect="always"
       xlink:href="#linearGradient6872"
       id="linearGradient29043"
       gradientUnits="userSpaceOnUse"
       x1="0.273"
       y1="240.70671"
       x2="481.13962"
       y2="240.70671" /><linearGradient
       inkscape:collect="always"
       xlink:href="#linearGradient6872"
       id="linearGradient29045"
       gradientUnits="userSpaceOnUse"
       x1="0.273"
       y1="240.70671"
       x2="481.13962"
       y2="240.70671" /><linearGradient
       inkscape:collect="always"
       xlink:href="#linearGradient6872"
       id="linearGradient29047"
       gradientUnits="userSpaceOnUse"
       x1="0.273"
       y1="240.70671"
       x2="481.13962"
       y2="240.70671" /><linearGradient
       inkscape:collect="always"
       xlink:href="#linearGradient6872"
       id="linearGradient29049"
       gradientUnits="userSpaceOnUse"
       x1="0.273"
       y1="240.70671"
       x2="481.13962"
       y2="240.70671" /><linearGradient
       inkscape:collect="always"
       xlink:href="#linearGradient6872"
       id="linearGradient29051"
       gradientUnits="userSpaceOnUse"
       x1="0.273"
       y1="240.70671"
       x2="481.13962"
       y2="240.70671" /><linearGradient
       inkscape:collect="always"
       xlink:href="#linearGradient6872"
       id="linearGradient29053"
       gradientUnits="userSpaceOnUse"
       x1="0.273"
       y1="240.70671"
       x2="481.13962"
       y2="240.70671" /><linearGradient
       inkscape:collect="always"
       xlink:href="#linearGradient6872"
       id="linearGradient29055"
       gradientUnits="userSpaceOnUse"
       x1="0.273"
       y1="240.70671"
       x2="481.13962"
       y2="240.70671" /><linearGradient
       inkscape:collect="always"
       xlink:href="#linearGradient6872"
       id="linearGradient29057"
       gradientUnits="userSpaceOnUse"
       x1="0.273"
       y1="240.70671"
       x2="481.13962"
       y2="240.70671" /><linearGradient
       inkscape:collect="always"
       xlink:href="#linearGradient6872"
       id="linearGradient29059"
       gradientUnits="userSpaceOnUse"
       x1="0.273"
       y1="240.70671"
       x2="481.13962"
       y2="240.70671" /><linearGradient
       inkscape:collect="always"
       xlink:href="#linearGradient6872"
       id="linearGradient29061"
       gradientUnits="userSpaceOnUse"
       x1="0.273"
       y1="240.70671"
       x2="481.13962"
       y2="240.70671" /><linearGradient
       inkscape:collect="always"
       xlink:href="#linearGradient6872"
       id="linearGradient29063"
       gradientUnits="userSpaceOnUse"
       x1="0.273"
       y1="240.70671"
       x2="481.13962"
       y2="240.70671" /><linearGradient
       inkscape:collect="always"
       xlink:href="#linearGradient6872"
       id="linearGradient29065"
       gradientUnits="userSpaceOnUse"
       x1="0.273"
       y1="240.70671"
       x2="481.13962"
       y2="240.70671" /><linearGradient
       inkscape:collect="always"
       xlink:href="#linearGradient6872"
       id="linearGradient29067"
       gradientUnits="userSpaceOnUse"
       x1="0.273"
       y1="240.70671"
       x2="481.13962"
       y2="240.70671" /><linearGradient
       inkscape:collect="always"
       xlink:href="#linearGradient6872"
       id="linearGradient29069"
       gradientUnits="userSpaceOnUse"
       x1="0.273"
       y1="240.70671"
       x2="481.13962"
       y2="240.70671" /><linearGradient
       inkscape:collect="always"
       xlink:href="#linearGradient6872"
       id="linearGradient29071"
       gradientUnits="userSpaceOnUse"
       x1="0.273"
       y1="240.70671"
       x2="481.13962"
       y2="240.70671" /><linearGradient
       inkscape:collect="always"
       xlink:href="#linearGradient6872"
       id="linearGradient29073"
       gradientUnits="userSpaceOnUse"
       x1="0.273"
       y1="240.70671"
       x2="481.13962"
       y2="240.70671" /></defs><sodipodi:namedview
     pagecolor="#ffffff"
     bordercolor="#666666"
     borderopacity="1"
     objecttolerance="10"
     gridtolerance="10"
     guidetolerance="10"
     inkscape:pageopacity="0"
     inkscape:pageshadow="2"
     inkscape:window-width="3200"
     inkscape:window-height="1675"
     id="namedview4460"
     showgrid="false"
     showguides="true"
     inkscape:guide-bbox="true"
     inkscape:zoom="1.888"
     inkscape:cx="45.916058"
     inkscape:cy="20.782037"
     inkscape:window-x="-13"
     inkscape:window-y="-13"
     inkscape:window-maximized="1"
     inkscape:current-layer="layer1" /><metadata
     id="metadata4454"> Svg Vector Icons : http://www.onlinewebfonts.com/icon <rdf:RDF><cc:Work
     rdf:about=""><dc:format>image/svg+xml</dc:format><dc:type
       rdf:resource="http://purl.org/dc/dcmitype/StillImage" /><dc:title></dc:title></cc:Work></rdf:RDF></metadata><g
     inkscape:groupmode="layer"
     id="layer5"
     inkscape:label="Layer"
     transform="translate(-370.86983,-368.63585)" /><g
     inkscape:groupmode="layer"
     id="layer2"
     inkscape:label="Calendar"
     transform="translate(-370.86983,-368.63585)"><path
       style="opacity:0.65;fill:url(#linearGradient29028);fill-opacity:1;fill-rule:nonzero;stroke:none"
       d="m 380.53125,470.59375 v 32 h 32 v -32 z m 35.1875,0 v 32 h 32 v -32 z m 35.1875,0 v 32 h 19.65625 c 3.70339,-3.00782 7.84907,-5.4823 12.34375,-7.34375 v -24.65625 z m 35.21875,0 V 494 c 3.94998,-1.32226 8.11953,-2.16991 12.46875,-2.46875 6.82123,-0.4687 13.4331,0.45587 19.53125,2.53125 v -23.46875 z m 35.1875,0 v 24.71875 c 4.42095,1.85214 8.53275,4.28873 12.21875,7.28125 h 19.78125 v -32 z m 35.21875,0 v 32 h 32 v -32 z m 35.1875,0 v 32 h 32 v -32 z m -211.1875,35.21875 v 32 h 32 v -32 z m 35.1875,0 v 32 h 32 v -32 z m 35.1875,0 v 32 h 1.25 c 0.88243,-12.39703 6.34299,-23.67366 14.78125,-32 z m 86.1875,0 c 8.18101,8.05432 13.67359,18.93697 14.75,31.25 l 0.0625,0.75 h 1.40625 v -32 z m 19.4375,0 v 32 h 32 v -32 z m 35.1875,0 v 32 h 32 v -32 z M 380.53125,541 v 32 h 32 v -32 z m 35.1875,0 v 32 h 32 v -32 z m 35.1875,0 v 32 h 12.375 c -6.31838,-7.73801 -10.38808,-17.43147 -11.125,-28.15625 -0.0887,-1.29139 -0.1031,-2.57043 -0.0937,-3.84375 z m 101.125,0 c 0.11103,12.05218 -4.12458,23.23185 -11.28125,32 h 12.5625 v -32 z m 4.5,0 v 32 h 32 v -32 z m 35.1875,0 v 32 h 32 v -32 z m -211.1875,35.1875 v 32 h 32 v -32 z m 35.1875,0 v 32 h 32 v -32 z m 35.1875,0 v 32 h 32 V 587.625 c -6.34033,-2.63129 -12.04879,-6.55662 -16.78125,-11.4375 z m 87.03125,0 c -4.66398,4.82043 -10.3011,8.6997 -16.625,11.34375 v 20.65625 h 32 v -32 z m 18.59375,0 v 32 h 32 v -32 z m 35.1875,0 v 32 h 32 v -32 z M 518.125,588.75 c -4.00825,1.36058 -8.2342,2.2274 -12.65625,2.53125 -6.76046,0.46453 -13.29706,-0.43584 -19.34375,-2.46875 v 19.375 h 32 z"
       id="use6238"
       inkscape:connector-curvature="0" /></g><g
     inkscape:groupmode="layer"
     id="layer1"
     inkscape:label="Base"
     transform="translate(-370.86983,-368.63585)"><g
       transform="translate(-1.1801714,-3.4141506)"
       id="g4456"><path
         d="m 605.43027,399.32625 h -29.98551 v -17.15924 h -0.0261 c 0,-0.19837 0.0261,-0.39675 0.0261,-0.59512 0,-5.25688 -3.36946,-9.52189 -7.5225,-9.52189 -4.15305,0 -7.5225,4.26501 -7.5225,9.52189 0,0.19837 0,0.39675 0.0261,0.59512 h -0.0522 v 17.15924 H 439.93532 v -17.15924 h -0.0261 c 0,-0.19837 0.0261,-0.39675 0.0261,-0.59512 0,-5.25688 -3.36945,-9.52189 -7.5225,-9.52189 -4.15305,0 -7.5225,4.26501 -7.5225,9.52189 0,0.19837 0,0.39675 0.0261,0.59512 h -0.0261 v 17.15924 h -30.24671 c -12.45913,0 -22.59361,12.8281 -22.59361,28.59873 v 171.52629 c 0,15.77063 10.13448,28.59873 22.59361,28.59873 h 210.81278 c 12.45913,0 22.59361,-12.8281 22.59361,-28.59873 V 427.92498 c -0.0261,-15.77063 -10.1606,-28.59873 -22.61973,-28.59873 z m 0,19.04378 c 4.15304,0 7.5225,4.26501 7.5225,9.52189 v 30.11959 h -37.53413 v -39.64148 z m -45.05663,0 v 39.64148 H 439.93532 v -39.64148 z m -165.73003,0 h 30.22059 v 39.64148 H 387.095 v -30.11959 c 0,-5.22381 3.39557,-9.52189 7.54861,-9.52189 z M 605.43027,608.97316 H 394.64361 c -4.15304,0 -7.52249,-4.26502 -7.52249,-9.52189 V 477.08836 h 225.85776 v 122.36291 c 0,5.25687 -3.39557,9.52189 -7.54861,9.52189 z"
         id="path4458"
         inkscape:connector-curvature="0"
         style="fill:url(#linearGradient6083);fill-opacity:1" /></g></g><g
     inkscape:groupmode="layer"
     id="layer3"
     inkscape:label="check"
     transform="translate(-370.86983,-368.63585)"><g
       id="g22081"
       transform="matrix(0.22125382,0,0,0.22172558,448.94407,487.99932)"
       style="fill:url(#linearGradient29037);fill-opacity:1"><g
         id="g21977"
         style="fill:url(#linearGradient29043);fill-opacity:1"><g
           id="g21979"
           style="fill:url(#linearGradient29041);fill-opacity:1"><path
             id="path22043"
             d="m 373.973,69.013 c 2.2,1.7 4.8,2.5 7.3,2.5 3.6,0 7.1,-1.6 9.5,-4.7 4.1,-5.2 3.1,-12.8 -2.1,-16.8 -5.2,-4.1 -12.8,-3.1 -16.8,2.1 -4.1,5.3 -3.1,12.8 2.1,16.9 z m -37.3,-23.2 c 1.7,0.8 3.5,1.2 5.3,1.2 4.4,0 8.7,-2.5 10.8,-6.7 2.9,-6 0.5,-13.1 -5.5,-16.1 v 0 c -6,-2.9 -13.1,-0.5 -16.1,5.5 -2.9,5.9 -0.4,13.1 5.5,16.1 z m 0.5,389.6 c -6,2.9 -8.4,10.1 -5.5,16.1 2.1,4.2 6.3,6.7 10.8,6.7 1.8,0 3.6,-0.4 5.3,-1.2 6,-2.9 8.4,-10.1 5.5,-16.1 -3,-6 -10.2,-8.4 -16.1,-5.5 z m -41.2,15.3 c -6.4,1.7 -10.3,8.2 -8.6,14.6 1.4,5.4 6.3,9 11.6,9 1,0 2,-0.1 3,-0.4 6.4,-1.7 10.3,-8.2 8.6,-14.6 -1.6,-6.4 -8.1,-10.2 -14.6,-8.6 z m -129.7,-6.3 c -6.2,-2.3 -13.1,0.9 -15.4,7.1 -2.3,6.2 0.9,13.1 7.1,15.4 v 0 c 1.4,0.5 2.8,0.7 4.1,0.7 4.9,0 9.5,-3 11.3,-7.9 2.3,-6.1 -0.9,-13 -7.1,-15.3 z m 42.5,10.9 c -6.5,-1 -12.7,3.5 -13.6,10.1 -1,6.5 3.5,12.7 10.1,13.6 0.6,0.1 1.2,0.1 1.8,0.1 5.8,0 11,-4.3 11.8,-10.2 1,-6.5 -3.6,-12.6 -10.1,-13.6 z m 43.9,2.1 c -6.6,0.4 -11.7,6 -11.4,12.6 0.3,6.4 5.6,11.4 12,11.4 0.2,0 0.4,0 0.6,0 6.6,-0.3 11.7,-6 11.4,-12.6 -0.3,-6.6 -6,-11.7 -12.6,-11.4 z m 121.7,-45.3 v 0 c -5.2,4.1 -6.2,11.6 -2.1,16.8 2.4,3.1 5.9,4.6 9.5,4.6 2.6,0 5.2,-0.8 7.4,-2.5 5.2,-4.1 6.2,-11.6 2.1,-16.8 -4.2,-5.2 -11.7,-6.1 -16.9,-2.1 z m 89.1,-114.5 c -6.3,-2 -13,1.5 -15,7.9 -2,6.3 1.6,13 7.9,15 1.2,0.4 2.4,0.5 3.6,0.5 5.1,0 9.9,-3.3 11.5,-8.4 1.9,-6.4 -1.7,-13.1 -8,-15 z m -16,43.5 c -5.8,-3.2 -13.1,-1.1 -16.3,4.7 -3.2,5.8 -1.1,13.1 4.7,16.3 1.8,1 3.8,1.5 5.8,1.5 4.2,0 8.3,-2.2 10.5,-6.2 3.2,-5.8 1.1,-13.1 -4.7,-16.3 z m -285.8,-303.2 c 1.4,0 2.8,-0.2 4.2,-0.8 6.2,-2.3 9.4,-9.2 7.1,-15.4 -2.3,-6.2 -9.2,-9.4 -15.4,-7.1 -6.2,2.3 -9.4,9.2 -7.1,15.4 1.7,4.9 6.3,7.9 11.2,7.9 z m 308.6,213.8 c -6.6,-0.6 -12.5,4.2 -13.1,10.8 -0.7,6.6 4.2,12.5 10.8,13.1 0.4,0 0.8,0.1 1.2,0.1 6.1,0 11.3,-4.6 11.9,-10.8 0.7,-6.7 -4.2,-12.6 -10.8,-13.2 z m -55.4,-148.3 c 2.8,0 5.6,-1 7.8,-2.9 5,-4.3 5.6,-11.9 1.3,-16.9 -4.3,-5 -11.9,-5.6 -16.9,-1.3 -5,4.3 -5.6,11.9 -1.3,16.9 2.4,2.8 5.8,4.2 9.1,4.2 z m 8.2,277.1 c -5,-4.3 -12.6,-3.7 -16.9,1.3 -4.3,5 -3.7,12.6 1.3,16.9 2.3,1.9 5,2.9 7.8,2.9 3.4,0 6.8,-1.4 9.1,-4.2 4.3,-5 3.7,-12.6 -1.3,-16.9 z m 18.4,-239.1 c 2,0 4,-0.5 5.8,-1.5 5.8,-3.2 7.9,-10.5 4.6,-16.3 -3.2,-5.8 -10.5,-7.9 -16.3,-4.6 -5.8,3.2 -7.9,10.5 -4.6,16.3 2.2,3.8 6.3,6.1 10.5,6.1 z m -394.8,220.7 c -5.4,3.8 -6.7,11.3 -2.9,16.7 2.3,3.3 6.1,5.1 9.8,5.1 2.4,0 4.8,-0.7 6.9,-2.2 5.4,-3.8 6.8,-11.3 2.9,-16.7 -3.8,-5.4 -11.3,-6.7 -16.7,-2.9 z m -0.3,-242.3 c 2.1,1.4 4.5,2.1 6.9,2.1 3.8,0 7.5,-1.8 9.9,-5.1 3.8,-5.4 2.5,-12.9 -3,-16.7 -5.4,-3.8 -12.9,-2.5 -16.7,3 -3.8,5.4 -2.5,12.9 2.9,16.7 z m -20.3,41.6 c 1.5,0.7 3.1,1 4.7,1 4.6,0 9.1,-2.7 11,-7.3 2.6,-6.1 -0.2,-13.1 -6.3,-15.8 -6.1,-2.6 -13.2,0.2 -15.8,6.3 -2.6,6.2 0.3,13.2 6.4,15.8 z m 180.4,-135.1 c 0.6,0 1.2,0 1.8,-0.1 6.5,-1 11,-7.1 10,-13.7 -1,-6.6 -7.1,-11 -13.7,-10 -6.6,1 -11.1,7.1 -10.1,13.7 1.1,5.9 6.2,10.1 12,10.1 z m -79.6,398.8 c -5.6,-3.5 -13,-1.8 -16.5,3.9 -3.5,5.6 -1.8,13 3.9,16.5 2,1.2 4.2,1.8 6.3,1.8 4,0 7.9,-2 10.2,-5.7 3.4,-5.6 1.7,-13 -3.9,-16.5 z m 341,-219.8 c -6.6,0.7 -11.4,6.5 -10.7,13.1 0.6,6.2 5.8,10.8 11.9,10.8 0.4,0 0.8,0 1.2,-0.1 6.6,-0.7 11.4,-6.6 10.7,-13.2 -0.6,-6.4 -6.5,-11.2 -13.1,-10.6 z m -172.3,-174.8 c 1,0.3 2,0.4 3,0.4 5.3,0 10.2,-3.6 11.6,-9 1.7,-6.4 -2.2,-13 -8.6,-14.6 -6.4,-1.7 -13,2.2 -14.6,8.6 -1.7,6.4 2.2,13 8.6,14.6 z m -43.4,-6.5 c 0.2,0 0.4,0 0.6,0 6.4,0 11.7,-5 12,-11.4 0.3,-6.6 -4.8,-12.3 -11.4,-12.6 -6.6,-0.3 -12.2,4.8 -12.6,11.4 -0.3,6.6 4.8,12.2 11.4,12.6 z m 196.1,151.5 v 0 c 1.6,5.1 6.3,8.4 11.4,8.4 1.2,0 2.4,-0.2 3.6,-0.6 6.3,-2 9.8,-8.7 7.8,-15 v 0 c -2,-6.3 -8.7,-9.8 -15,-7.8 -6.2,2 -9.8,8.7 -7.8,15 z m -433.8,30.9 c 0.8,0.2 1.6,0.3 2.4,0.3 5.6,0 10.6,-3.9 11.7,-9.6 1.3,-6.5 -2.9,-12.8 -9.4,-14.2 -6.5,-1.3 -12.8,2.9 -14.2,9.4 v 0 c -1.1,6.4 3.1,12.7 9.5,14.1 z m 60.6,192.3 c -4.6,4.8 -4.4,12.4 0.5,17 2.3,2.2 5.3,3.3 8.3,3.3 3.2,0 6.4,-1.3 8.7,-3.8 4.6,-4.8 4.4,-12.4 -0.5,-17 -4.8,-4.5 -12.4,-4.3 -17,0.5 z m -62.8,-145.5 c 6.6,0 12,-5.4 12,-12 0,-0.1 0,-0.1 0,-0.2 0,-0.1 0,-0.2 0,-0.3 0,-6.6 -5.4,-12 -12,-12 -6.6,0 -12,5.4 -12,12 0,0.1 0,0.2 0,0.3 0,0.1 0,0.2 0,0.3 0,6.6 5.4,11.9 12,11.9 z m 71.2,-166.4 c 3,0 5.9,-1.1 8.3,-3.3 4.8,-4.6 5,-12.2 0.4,-17 -4.6,-4.8 -12.2,-5 -17,-0.4 v 0 c -4.8,4.6 -5,12.2 -0.4,17 2.3,2.4 5.5,3.7 8.7,3.7 z m 36.6,-28.4 c 2.2,0 4.4,-0.6 6.4,-1.8 5.6,-3.5 7.3,-10.9 3.8,-16.5 -3.5,-5.6 -10.9,-7.3 -16.5,-3.8 -5.6,3.5 -7.3,10.9 -3.8,16.5 2.2,3.6 6.1,5.6 10.1,5.6 z m -91.3,226.5 c -1.3,-6.5 -7.7,-10.7 -14.2,-9.3 -6.5,1.4 -10.7,7.6 -9.3,14.1 1.2,5.7 6.2,9.6 11.7,9.6 0.8,0 1.6,-0.1 2.4,-0.3 6.6,-1.3 10.7,-7.7 9.4,-14.1 z m 13.2,41.8 c -2.6,-6.1 -9.7,-8.9 -15.8,-6.3 -6.1,2.6 -8.9,9.7 -6.3,15.8 2,4.5 6.4,7.3 11,7.3 1.6,0 3.2,-0.3 4.8,-1 6.1,-2.7 8.9,-9.7 6.3,-15.8 z m 253.2,-138.8 -80.1,80.1 -27.8,-27.8 c -4.7,-4.7 -12.3,-4.7 -17,0 -4.7,4.7 -4.7,12.3 0,17 l 36.3,36.3 c 2.3,2.3 5.3,3.5 8.5,3.5 3.2,0 6.2,-1.3 8.5,-3.5 l 88.5,-88.5 c 4.7,-4.7 4.7,-12.3 0,-17 -4.6,-4.7 -12.2,-4.7 -16.9,-0.1 z"
             inkscape:connector-curvature="0"
             style="fill:url(#linearGradient29039);fill-opacity:1" /></g></g><g
         id="g22045"
         style="fill:url(#linearGradient29045);fill-opacity:1" /><g
         id="g22047"
         style="fill:url(#linearGradient29047);fill-opacity:1" /><g
         id="g22049"
         style="fill:url(#linearGradient29049);fill-opacity:1" /><g
         id="g22051"
         style="fill:url(#linearGradient29051);fill-opacity:1" /><g
         id="g22053"
         style="fill:url(#linearGradient29053);fill-opacity:1" /><g
         id="g22055"
         style="fill:url(#linearGradient29055);fill-opacity:1" /><g
         id="g22057"
         style="fill:url(#linearGradient29057);fill-opacity:1" /><g
         id="g22059"
         style="fill:url(#linearGradient29059);fill-opacity:1" /><g
         id="g22061"
         style="fill:url(#linearGradient29061);fill-opacity:1" /><g
         id="g22063"
         style="fill:url(#linearGradient29063);fill-opacity:1" /><g
         id="g22065"
         style="fill:url(#linearGradient29065);fill-opacity:1" /><g
         id="g22067"
         style="fill:url(#linearGradient29067);fill-opacity:1" /><g
         id="g22069"
         style="fill:url(#linearGradient29069);fill-opacity:1" /><g
         id="g22071"
         style="fill:url(#linearGradient29071);fill-opacity:1" /><g
         id="g22073"
         style="fill:url(#linearGradient29073);fill-opacity:1" /></g></g></svg>