<?xml version="1.0" encoding="utf-8"?>
<!-- Generator: Adobe Illustrator 22.0.1, SVG Export Plug-In . SVG Version: 6.00 Build 0)  -->
<svg version="1.1" id="Layer_1" xmlns="http://www.w3.org/2000/svg" xmlns:xlink="http://www.w3.org/1999/xlink" x="0px" y="0px"
	 viewBox="0 0 512 512" style="enable-background:new 0 0 512 512;" xml:space="preserve">
<style type="text/css">
	.st0{fill:none;stroke:url(#SVGID_1_);stroke-width:12;stroke-miterlimit:10;}
	.st1{fill:none;stroke:url(#SVGID_2_);stroke-width:12;stroke-miterlimit:10;}
	.st2{fill:none;stroke:url(#SVGID_3_);stroke-width:12;stroke-miterlimit:10;}
	.st3{fill:none;stroke:url(#SVGID_4_);stroke-width:12;stroke-miterlimit:10;}
	.st4{fill:none;stroke:url(#SVGID_5_);stroke-width:12;stroke-miterlimit:10;}
	.st5{fill:none;stroke:url(#SVGID_6_);stroke-width:12;stroke-miterlimit:10;}
</style>
<g>
	<linearGradient id="SVGID_1_" gradientUnits="userSpaceOnUse" x1="241.7161" y1="6.3351" x2="244.3227" y2="6.3351">
		<stop  offset="0" style="stop-color:#19AEFF"/>
		<stop  offset="0.9974" style="stop-color:#EB62DE"/>
	</linearGradient>
	<path class="st0" d="M242,6.4c0.7,0,1.3-0.1,2-0.1"/>
	<linearGradient id="SVGID_2_" gradientUnits="userSpaceOnUse" x1="267.6772" y1="505.6649" x2="270.2841" y2="505.6649">
		<stop  offset="0" style="stop-color:#19AEFF"/>
		<stop  offset="0.9974" style="stop-color:#EB62DE"/>
	</linearGradient>
	<path class="st1" d="M270,505.6c-0.7,0-1.3,0.1-2,0.1"/>
	<linearGradient id="SVGID_3_" gradientUnits="userSpaceOnUse" x1="-0.9359" y1="163.8528" x2="522.538" y2="163.8528">
		<stop  offset="0" style="stop-color:#19AEFF"/>
		<stop  offset="0.9974" style="stop-color:#EB62DE"/>
	</linearGradient>
	<path class="st2" d="M179.6,305.3L242,6.4C127.1,12.7,32.9,96.7,10.9,206.7c131.6,0,134.4,0,134.4,0L179.6,305.3z"/>
	<linearGradient id="SVGID_4_" gradientUnits="userSpaceOnUse" x1="0" y1="256.0049" x2="518.6115" y2="256.0049">
		<stop  offset="0" style="stop-color:#19AEFF"/>
		<stop  offset="0.9974" style="stop-color:#EB62DE"/>
	</linearGradient>
	<path class="st3" d="M242,6.4l-62.5,298.9l-34.3-98.6c0,0-2.8,0-134.4,0C7.7,222.6,6,239.1,6,256c0,138.1,111.9,250,250,250
		c4,0,8-0.1,12-0.3L244,6.3C243.4,6.3,242.7,6.4,242,6.4z"/>
	<linearGradient id="SVGID_5_" gradientUnits="userSpaceOnUse" x1="-10.538" y1="348.1472" x2="512.9359" y2="348.1472">
		<stop  offset="0" style="stop-color:#19AEFF"/>
		<stop  offset="0.9974" style="stop-color:#EB62DE"/>
	</linearGradient>
	<path class="st4" d="M501.1,305.3H366.7l-34.3-98.6L270,505.6C384.9,499.3,479.1,415.3,501.1,305.3z"/>
	<linearGradient id="SVGID_6_" gradientUnits="userSpaceOnUse" x1="-6.6115" y1="255.9952" x2="512" y2="255.9952">
		<stop  offset="0" style="stop-color:#19AEFF"/>
		<stop  offset="0.9974" style="stop-color:#EB62DE"/>
	</linearGradient>
	<path class="st5" d="M366.7,305.3h134.4c3.2-15.9,4.9-32.4,4.9-49.3C506,117.9,394.1,6,256,6c-4,0-8,0.1-12,0.3L268,505.7
		c0.7,0,1.3-0.1,2-0.1l62.5-298.9L366.7,305.3z"/>
</g>
</svg>
